G04*
G04 #@! TF.GenerationSoftware,Altium Limited,Altium Designer,20.0.2 (26)*
G04*
G04 Layer_Color=65535*
%FSLAX44Y44*%
%MOMM*%
G71*
G01*
G75*
%ADD10C,0.2500*%
%ADD11C,0.2000*%
%ADD12C,0.1000*%
%ADD13C,0.1500*%
D10*
X-31250Y-104500D02*
G03*
X-31250Y-104500I-1250J0D01*
G01*
X-90150Y-40000D02*
G03*
X-90150Y-40000I-1250J0D01*
G01*
X81500Y2000D02*
G03*
X81500Y2000I-1250J0D01*
G01*
D11*
X26833Y-206584D02*
G03*
X26833Y-233416I-26833J-13416D01*
G01*
X233416Y-26833D02*
G03*
X206584Y-26833I-13416J26833D01*
G01*
X26833Y233416D02*
G03*
X26833Y206584I-26833J-13416D01*
G01*
X-233416Y26833D02*
G03*
X-206584Y26833I13416J-26833D01*
G01*
X-85000Y-73000D02*
X-39000D01*
X-85000Y-103000D02*
X-39000D01*
X82000Y100000D02*
X102000D01*
Y66000D02*
Y100000D01*
X82000Y66000D02*
X102000D01*
X82000D02*
Y100000D01*
X-107000Y-7500D02*
Y26500D01*
Y-7500D02*
X-3000D01*
Y26500D01*
X28000Y102000D02*
Y107000D01*
X53000D01*
Y77000D02*
Y82000D01*
X28000Y77000D02*
X53000D01*
X28000D02*
Y82000D01*
X53000Y102000D02*
Y107000D01*
X-175000Y-75250D02*
X-150000D01*
X-175000D02*
Y75250D01*
X-125000D01*
Y-75250D02*
Y75250D01*
X-150000Y-75250D02*
X-125000D01*
X-150000Y75250D02*
Y99000D01*
Y-99000D02*
Y-75250D01*
X74250Y-150000D02*
X98000D01*
X-100000D02*
X-76250D01*
X74250D02*
Y-125000D01*
X-76250D02*
X74250D01*
X-76250Y-175000D02*
Y-125000D01*
Y-175000D02*
X74250D01*
Y-150000D01*
X125000Y-75250D02*
X150000D01*
X125000D02*
Y75250D01*
X175000D01*
Y-75250D02*
Y75250D01*
X150000Y-75250D02*
X175000D01*
X150000Y75250D02*
Y99000D01*
Y-99000D02*
Y-75250D01*
X75250Y150000D02*
X99000D01*
X-99000D02*
X-75250D01*
X75250D02*
Y175000D01*
X-75250D02*
X75250D01*
X-75250Y125000D02*
Y175000D01*
Y125000D02*
X75250D01*
Y150000D01*
X80000Y-49000D02*
Y-29000D01*
X114000D01*
Y-49000D02*
Y-29000D01*
X80000Y-49000D02*
X114000D01*
X37000Y30000D02*
X57000D01*
Y-4000D02*
Y30000D01*
X37000Y-4000D02*
X57000D01*
X37000D02*
Y30000D01*
Y-16000D02*
X57000D01*
Y-50000D02*
Y-16000D01*
X37000Y-50000D02*
X57000D01*
X37000D02*
Y-16000D01*
X27000Y-233000D02*
Y-207000D01*
X207000Y-27000D02*
X233000D01*
X27000Y207000D02*
Y233000D01*
X-233000Y27000D02*
X-207000D01*
X105750Y21000D02*
X113000D01*
Y12000D02*
Y21000D01*
X84000D02*
X91250D01*
X84000Y12000D02*
Y21000D01*
X-162000Y-23000D02*
Y23000D01*
X-138000D01*
Y-23000D02*
Y23000D01*
X-162000Y-23000D02*
X-138000D01*
X-222000Y42000D02*
X-198000D01*
Y88000D01*
X-222000D02*
X-198000D01*
X-222000Y42000D02*
Y88000D01*
X-198000Y-88000D02*
Y-42000D01*
X-222000Y-88000D02*
X-198000D01*
X-222000D02*
Y-42000D01*
X-198000D01*
X-23000Y138000D02*
Y162000D01*
Y138000D02*
X23000D01*
Y162000D01*
X-23000D02*
X23000D01*
X42000Y222000D02*
X88000D01*
Y198000D02*
Y222000D01*
X42000Y198000D02*
X88000D01*
X42000D02*
Y222000D01*
X-42000Y198000D02*
Y222000D01*
X-88000D02*
X-42000D01*
X-88000Y198000D02*
Y222000D01*
Y198000D02*
X-42000D01*
X162000Y-23000D02*
Y23000D01*
X138000Y-23000D02*
X162000D01*
X138000D02*
Y23000D01*
X162000D01*
X198000Y-42000D02*
X222000D01*
X198000Y-88000D02*
Y-42000D01*
Y-88000D02*
X222000D01*
Y-42000D01*
X198000Y42000D02*
Y88000D01*
X222000D01*
Y42000D02*
Y88000D01*
X198000Y42000D02*
X222000D01*
X-23000Y-162000D02*
Y-138000D01*
Y-162000D02*
X23000D01*
Y-138000D01*
X-23000D02*
X23000D01*
X39000Y-198000D02*
X85000D01*
Y-222000D02*
Y-198000D01*
X39000Y-222000D02*
X85000D01*
X39000D02*
Y-198000D01*
X-38000Y-226000D02*
Y-202000D01*
X-84000D02*
X-38000D01*
X-84000Y-226000D02*
Y-202000D01*
Y-226000D02*
X-38000D01*
X-130000Y-204502D02*
X-122003D01*
X-126001Y-200503D02*
Y-208501D01*
X125000Y-202502D02*
X132997D01*
D12*
X-8000Y-112000D02*
X106000D01*
X-8000Y-64000D02*
X106000D01*
X-8000Y-112000D02*
Y-103000D01*
Y-73000D02*
Y-64000D01*
X106000Y-112000D02*
Y-103000D01*
X106000Y-103000D02*
X106000Y-103000D01*
Y-73000D02*
Y-64000D01*
X106000Y-73000D02*
X106000Y-73000D01*
D13*
X83000Y106000D02*
Y113997D01*
X86999D01*
X88332Y112664D01*
Y109999D01*
X86999Y108666D01*
X83000D01*
X85666D02*
X88332Y106000D01*
X90997Y107333D02*
X92330Y106000D01*
X94996D01*
X96329Y107333D01*
Y112664D01*
X94996Y113997D01*
X92330D01*
X90997Y112664D01*
Y111332D01*
X92330Y109999D01*
X96329D01*
X-101080Y117547D02*
Y122879D01*
X-102413Y124211D01*
X-105079D01*
X-106412Y122879D01*
Y117547D01*
X-105079Y116214D01*
X-102413D01*
X-103746Y118880D02*
X-101080Y116214D01*
X-102413D02*
X-101080Y117547D01*
X-98415Y116214D02*
X-95749D01*
X-97082D01*
Y124211D01*
X-98415Y122879D01*
X32250Y58750D02*
Y66747D01*
X36249D01*
X37582Y65415D01*
Y62749D01*
X36249Y61416D01*
X32250D01*
X34916D02*
X37582Y58750D01*
X40247Y66747D02*
X45579D01*
X42913D01*
Y58750D01*
X48245D02*
X50911D01*
X49578D01*
Y66747D01*
X48245Y65415D01*
X-175000Y82250D02*
Y90247D01*
X-171001D01*
X-169668Y88914D01*
Y86249D01*
X-171001Y84916D01*
X-175000D01*
X-172334D02*
X-169668Y82250D01*
X-167003Y88914D02*
X-165670Y90247D01*
X-163004D01*
X-161671Y88914D01*
Y87582D01*
X-163004Y86249D01*
X-161671Y84916D01*
Y83583D01*
X-163004Y82250D01*
X-165670D01*
X-167003Y83583D01*
Y84916D01*
X-165670Y86249D01*
X-167003Y87582D01*
Y88914D01*
X-165670Y86249D02*
X-163004D01*
X-96750Y-135000D02*
Y-127003D01*
X-92751D01*
X-91418Y-128336D01*
Y-131001D01*
X-92751Y-132334D01*
X-96750D01*
X-94084D02*
X-91418Y-135000D01*
X-88753Y-127003D02*
X-83421D01*
Y-128336D01*
X-88753Y-133667D01*
Y-135000D01*
X118000Y81000D02*
Y88997D01*
X121999D01*
X123332Y87664D01*
Y84999D01*
X121999Y83666D01*
X118000D01*
X120666D02*
X123332Y81000D01*
X131329Y88997D02*
X128663Y87664D01*
X125997Y84999D01*
Y82333D01*
X127330Y81000D01*
X129996D01*
X131329Y82333D01*
Y83666D01*
X129996Y84999D01*
X125997D01*
X-100250Y163750D02*
Y171747D01*
X-96251D01*
X-94918Y170415D01*
Y167749D01*
X-96251Y166416D01*
X-100250D01*
X-97584D02*
X-94918Y163750D01*
X-86921Y171747D02*
X-92253D01*
Y167749D01*
X-89587Y169082D01*
X-88254D01*
X-86921Y167749D01*
Y165083D01*
X-88254Y163750D01*
X-90920D01*
X-92253Y165083D01*
X82000Y-24000D02*
Y-16003D01*
X85999D01*
X87332Y-17335D01*
Y-20001D01*
X85999Y-21334D01*
X82000D01*
X84666D02*
X87332Y-24000D01*
X93996D02*
Y-16003D01*
X89997Y-20001D01*
X95329D01*
X17500Y17000D02*
Y24997D01*
X21499D01*
X22832Y23665D01*
Y20999D01*
X21499Y19666D01*
X17500D01*
X20166D02*
X22832Y17000D01*
X25497Y23665D02*
X26830Y24997D01*
X29496D01*
X30829Y23665D01*
Y22332D01*
X29496Y20999D01*
X28163D01*
X29496D01*
X30829Y19666D01*
Y18333D01*
X29496Y17000D01*
X26830D01*
X25497Y18333D01*
X18750Y-32500D02*
Y-24503D01*
X22749D01*
X24082Y-25835D01*
Y-28501D01*
X22749Y-29834D01*
X18750D01*
X21416D02*
X24082Y-32500D01*
X26747D02*
X29413D01*
X28080D01*
Y-24503D01*
X26747Y-25835D01*
X-5668Y-58667D02*
Y-53335D01*
X-7001Y-52003D01*
X-9667D01*
X-11000Y-53335D01*
Y-58667D01*
X-9667Y-60000D01*
X-7001D01*
X-8334Y-57334D02*
X-5668Y-60000D01*
X-7001D02*
X-5668Y-58667D01*
X2329Y-60000D02*
X-3003D01*
X2329Y-54668D01*
Y-53335D01*
X996Y-52003D01*
X-1670D01*
X-3003Y-53335D01*
X32000Y-232003D02*
Y-240000D01*
X35999D01*
X37332Y-238667D01*
Y-233335D01*
X35999Y-232003D01*
X32000D01*
X43996Y-240000D02*
Y-232003D01*
X39997Y-236001D01*
X45329D01*
X184250Y33747D02*
Y25750D01*
X188249D01*
X189582Y27083D01*
Y32415D01*
X188249Y33747D01*
X184250D01*
X192247Y32415D02*
X193580Y33747D01*
X196246D01*
X197579Y32415D01*
Y31082D01*
X196246Y29749D01*
X194913D01*
X196246D01*
X197579Y28416D01*
Y27083D01*
X196246Y25750D01*
X193580D01*
X192247Y27083D01*
X-48500Y237997D02*
Y230000D01*
X-44501D01*
X-43168Y231333D01*
Y236665D01*
X-44501Y237997D01*
X-48500D01*
X-35171Y230000D02*
X-40503D01*
X-35171Y235332D01*
Y236665D01*
X-36504Y237997D01*
X-39170D01*
X-40503Y236665D01*
X-242000Y40997D02*
Y33000D01*
X-238001D01*
X-236668Y34333D01*
Y39664D01*
X-238001Y40997D01*
X-242000D01*
X-234003Y33000D02*
X-231337D01*
X-232670D01*
Y40997D01*
X-234003Y39664D01*
X81500Y45497D02*
Y37500D01*
X85499D01*
X86832Y38833D01*
Y40166D01*
X85499Y41499D01*
X81500D01*
X85499D01*
X86832Y42832D01*
Y44165D01*
X85499Y45497D01*
X81500D01*
X89497D02*
X94829D01*
X92163D01*
Y37500D01*
X97495D02*
X100161D01*
X98828D01*
Y45497D01*
X97495Y44165D01*
X-145750Y-50750D02*
X-153747D01*
Y-46751D01*
X-152415Y-45418D01*
X-149749D01*
X-148416Y-46751D01*
Y-50750D01*
Y-48084D02*
X-145750Y-45418D01*
Y-42753D02*
Y-40087D01*
Y-41420D01*
X-153747D01*
X-152415Y-42753D01*
Y-36088D02*
X-153747Y-34755D01*
Y-32089D01*
X-152415Y-30756D01*
X-147083D01*
X-145750Y-32089D01*
Y-34755D01*
X-147083Y-36088D01*
X-152415D01*
X-220000Y94000D02*
Y101997D01*
X-216001D01*
X-214668Y100665D01*
Y97999D01*
X-216001Y96666D01*
X-220000D01*
X-217334D02*
X-214668Y94000D01*
X-212003D02*
X-209337D01*
X-210670D01*
Y101997D01*
X-212003Y100665D01*
X-205338Y94000D02*
X-202672D01*
X-204005D01*
Y101997D01*
X-205338Y100665D01*
X-216500Y-102500D02*
Y-94503D01*
X-212501D01*
X-211168Y-95836D01*
Y-98501D01*
X-212501Y-99834D01*
X-216500D01*
X-213834D02*
X-211168Y-102500D01*
X-208503D02*
X-205837D01*
X-207170D01*
Y-94503D01*
X-208503Y-95836D01*
X-196506Y-102500D02*
X-201838D01*
X-196506Y-97168D01*
Y-95836D01*
X-197839Y-94503D01*
X-200505D01*
X-201838Y-95836D01*
X-49250Y145750D02*
Y153747D01*
X-45251D01*
X-43918Y152415D01*
Y149749D01*
X-45251Y148416D01*
X-49250D01*
X-46584D02*
X-43918Y145750D01*
X-41253D02*
X-38587D01*
X-39920D01*
Y153747D01*
X-41253Y152415D01*
X-34588D02*
X-33255Y153747D01*
X-30589D01*
X-29256Y152415D01*
Y151082D01*
X-30589Y149749D01*
X-31922D01*
X-30589D01*
X-29256Y148416D01*
Y147083D01*
X-30589Y145750D01*
X-33255D01*
X-34588Y147083D01*
X95000Y196000D02*
Y203997D01*
X98999D01*
X100332Y202665D01*
Y199999D01*
X98999Y198666D01*
X95000D01*
X97666D02*
X100332Y196000D01*
X102997D02*
X105663D01*
X104330D01*
Y203997D01*
X102997Y202665D01*
X113661Y196000D02*
Y203997D01*
X109662Y199999D01*
X114993D01*
X-122000Y195250D02*
Y203247D01*
X-118001D01*
X-116668Y201915D01*
Y199249D01*
X-118001Y197916D01*
X-122000D01*
X-119334D02*
X-116668Y195250D01*
X-114003D02*
X-111337D01*
X-112670D01*
Y203247D01*
X-114003Y201915D01*
X-102007Y203247D02*
X-107338D01*
Y199249D01*
X-104672Y200582D01*
X-103339D01*
X-102007Y199249D01*
Y196583D01*
X-103339Y195250D01*
X-106005D01*
X-107338Y196583D01*
X152500Y-47250D02*
X144503D01*
Y-43251D01*
X145836Y-41918D01*
X148501D01*
X149834Y-43251D01*
Y-47250D01*
Y-44584D02*
X152500Y-41918D01*
Y-39253D02*
Y-36587D01*
Y-37920D01*
X144503D01*
X145836Y-39253D01*
X144503Y-27256D02*
X145836Y-29922D01*
X148501Y-32588D01*
X151167D01*
X152500Y-31255D01*
Y-28589D01*
X151167Y-27256D01*
X149834D01*
X148501Y-28589D01*
Y-32588D01*
X190750Y-106500D02*
Y-98503D01*
X194749D01*
X196082Y-99836D01*
Y-102501D01*
X194749Y-103834D01*
X190750D01*
X193416D02*
X196082Y-106500D01*
X198747D02*
X201413D01*
X200080D01*
Y-98503D01*
X198747Y-99836D01*
X205412Y-98503D02*
X210744D01*
Y-99836D01*
X205412Y-105167D01*
Y-106500D01*
X191250Y96250D02*
Y104247D01*
X195249D01*
X196582Y102914D01*
Y100249D01*
X195249Y98916D01*
X191250D01*
X193916D02*
X196582Y96250D01*
X199247D02*
X201913D01*
X200580D01*
Y104247D01*
X199247Y102914D01*
X205912D02*
X207245Y104247D01*
X209911D01*
X211244Y102914D01*
Y101582D01*
X209911Y100249D01*
X211244Y98916D01*
Y97583D01*
X209911Y96250D01*
X207245D01*
X205912Y97583D01*
Y98916D01*
X207245Y100249D01*
X205912Y101582D01*
Y102914D01*
X207245Y100249D02*
X209911D01*
X-51500Y-156000D02*
Y-148003D01*
X-47501D01*
X-46168Y-149335D01*
Y-152001D01*
X-47501Y-153334D01*
X-51500D01*
X-48834D02*
X-46168Y-156000D01*
X-43503D02*
X-40837D01*
X-42170D01*
Y-148003D01*
X-43503Y-149335D01*
X-36838Y-154667D02*
X-35505Y-156000D01*
X-32839D01*
X-31506Y-154667D01*
Y-149335D01*
X-32839Y-148003D01*
X-35505D01*
X-36838Y-149335D01*
Y-150668D01*
X-35505Y-152001D01*
X-31506D01*
X41250Y-193500D02*
Y-185503D01*
X45249D01*
X46582Y-186835D01*
Y-189501D01*
X45249Y-190834D01*
X41250D01*
X43916D02*
X46582Y-193500D01*
X54579D02*
X49247D01*
X54579Y-188168D01*
Y-186835D01*
X53246Y-185503D01*
X50580D01*
X49247Y-186835D01*
X57245D02*
X58578Y-185503D01*
X61244D01*
X62576Y-186835D01*
Y-192167D01*
X61244Y-193500D01*
X58578D01*
X57245Y-192167D01*
Y-186835D01*
X-81000Y-196000D02*
Y-188003D01*
X-77001D01*
X-75668Y-189335D01*
Y-192001D01*
X-77001Y-193334D01*
X-81000D01*
X-78334D02*
X-75668Y-196000D01*
X-67671D02*
X-73003D01*
X-67671Y-190668D01*
Y-189335D01*
X-69004Y-188003D01*
X-71670D01*
X-73003Y-189335D01*
X-65005Y-196000D02*
X-62339D01*
X-63672D01*
Y-188003D01*
X-65005Y-189335D01*
X-114250Y-84253D02*
Y-92250D01*
X-110251D01*
X-108918Y-90917D01*
Y-85585D01*
X-110251Y-84253D01*
X-114250D01*
X-100921D02*
X-106253D01*
Y-88251D01*
X-103587Y-86918D01*
X-102254D01*
X-100921Y-88251D01*
Y-90917D01*
X-102254Y-92250D01*
X-104920D01*
X-106253Y-90917D01*
M02*
