G04*
G04 #@! TF.GenerationSoftware,Altium Limited,Altium Designer,20.0.2 (26)*
G04*
G04 Layer_Color=8388736*
%FSLAX44Y44*%
%MOMM*%
G71*
G01*
G75*
%ADD12C,0.1000*%
%ADD72C,0.0400*%
%ADD73C,0.0000*%
D12*
X104001Y-37499D02*
G03*
X104001Y-37499I-5000J0D01*
G01*
X38001Y-46499D02*
Y23501D01*
X108001Y-46499D02*
Y23501D01*
X38001D02*
X108001D01*
X38001Y-46499D02*
X108001D01*
D72*
X-73000Y-16000D02*
G03*
X-73000Y-20000I0J-2000D01*
G01*
X-93000D02*
G03*
X-93000Y-16000I0J2000D01*
G01*
X-85500Y-18000D02*
X-81750Y-14250D01*
Y-21757D02*
Y-14250D01*
X-77000Y-24250D02*
Y-11750D01*
X-89000Y-24250D02*
Y-11750D01*
X-93000Y-16000D02*
Y-11750D01*
X-73000Y-16000D02*
Y-11750D01*
Y-24250D02*
Y-20000D01*
X-93000Y-24250D02*
Y-20000D01*
X-81750Y-21757D02*
Y-21750D01*
X-85500Y-18000D02*
X-81750Y-21750D01*
X-77000Y-11750D02*
X-73000D01*
X-77000Y-11750D02*
X-77000Y-11750D01*
X-88995Y-11755D02*
X-77005D01*
X-93000Y-11750D02*
X-89000D01*
X-93000Y-24250D02*
X-89000D01*
X-88995Y-24245D02*
X-77005D01*
X-77000Y-24250D01*
X-73000D01*
D73*
X-137000Y-53800D02*
X-122000D01*
X-137000Y-47800D02*
X-122000D01*
Y-53800D02*
Y-47800D01*
X-128000Y-53800D02*
Y-47800D01*
Y-28800D02*
Y-22800D01*
X-122000Y-28800D02*
Y-22800D01*
X-137000D02*
X-122000D01*
X-137000Y-28800D02*
X-122000D01*
X-128000Y-3800D02*
Y2200D01*
X-122000Y-3800D02*
Y2200D01*
X-137000D02*
X-122000D01*
X-137000Y-3800D02*
X-122000D01*
X-128000Y21200D02*
Y27200D01*
X-122000Y21200D02*
Y27200D01*
X-137000D02*
X-122000D01*
X-137000Y21200D02*
X-122000D01*
X-128000Y47200D02*
Y53200D01*
X-122000Y47200D02*
Y53200D01*
X-137000D02*
X-122000D01*
X-137000Y47200D02*
X-122000D01*
X-137000Y-53800D02*
Y-47800D01*
Y-28800D02*
Y-22800D01*
Y-3800D02*
Y2200D01*
Y21200D02*
Y27200D01*
Y47200D02*
Y53200D01*
Y-62800D02*
Y62200D01*
X-162000D02*
X-137000D01*
X-162000Y-62800D02*
Y62200D01*
Y-62800D02*
X-137000D01*
X-220000Y-47800D02*
X-162000D01*
X-220000Y-53800D02*
X-162000D01*
X-220000D02*
Y-47800D01*
Y-28800D02*
Y-22800D01*
Y-28800D02*
X-162000D01*
X-220000Y-22800D02*
X-162000D01*
X-220000Y-3800D02*
Y2200D01*
Y-3800D02*
X-162000D01*
X-220000Y2200D02*
X-162000D01*
X-220000Y21200D02*
Y27200D01*
Y21200D02*
X-162000D01*
X-220000Y27200D02*
X-162000D01*
X-220000Y47200D02*
Y53200D01*
Y47200D02*
X-162000D01*
X-220000Y53200D02*
X-162000D01*
X23500Y49500D02*
Y62500D01*
X12500Y49500D02*
Y62500D01*
X8000Y49500D02*
Y62500D01*
Y49500D02*
X28000D01*
Y62500D01*
X8000D02*
X28000D01*
X-88500Y-55500D02*
Y-42500D01*
X-77500Y-55500D02*
Y-42500D01*
X-73000Y-55500D02*
Y-42500D01*
X-93000D02*
X-73000D01*
X-93000Y-55500D02*
Y-42500D01*
Y-55500D02*
X-73000D01*
X171000Y-15000D02*
Y15000D01*
X181000Y-15000D02*
Y15000D01*
X171000D02*
X181000D01*
X171000Y-15000D02*
X181000D01*
Y30000D02*
Y47000D01*
X171000D02*
X181000D01*
X171000Y30000D02*
Y47000D01*
X181000Y-47000D02*
Y-30000D01*
X171000Y-47000D02*
X181000D01*
X171000D02*
Y-30000D01*
X159000D02*
Y30000D01*
X193000D01*
Y-30000D02*
Y30000D01*
X159000Y-30000D02*
X193000D01*
X99500Y49500D02*
Y62500D01*
X88500Y49500D02*
Y62500D01*
X84000Y49500D02*
Y62500D01*
Y49500D02*
X104000D01*
Y62500D01*
X84000D02*
X104000D01*
X17500Y-94500D02*
Y-81500D01*
X6500Y-94500D02*
Y-81500D01*
X2000Y-94500D02*
Y-81500D01*
Y-94500D02*
X22000D01*
Y-81500D01*
X2000D02*
X22000D01*
X128500Y-74500D02*
X141500D01*
X128500Y-85500D02*
X141500D01*
X128500Y-90000D02*
X141500D01*
Y-70000D01*
X128500D02*
X141500D01*
X128500Y-90000D02*
Y-70000D01*
X61500Y49500D02*
Y62500D01*
X50500Y49500D02*
Y62500D01*
X46000Y49500D02*
Y62500D01*
Y49500D02*
X66000D01*
Y62500D01*
X46000D02*
X66000D01*
X80500Y-94500D02*
Y-81500D01*
X91500Y-94500D02*
Y-81500D01*
X96000Y-94500D02*
Y-81500D01*
X76000D02*
X96000D01*
X76000Y-94500D02*
Y-81500D01*
Y-94500D02*
X96000D01*
X-3500Y110500D02*
Y123500D01*
X7500Y110500D02*
Y123500D01*
X12000Y110500D02*
Y123500D01*
X-8000D02*
X12000D01*
X-8000Y110500D02*
Y123500D01*
Y110500D02*
X12000D01*
M02*
