G04*
G04 #@! TF.GenerationSoftware,Altium Limited,Altium Designer,20.0.2 (26)*
G04*
G04 Layer_Physical_Order=2*
G04 Layer_Color=16711680*
%FSLAX44Y44*%
%MOMM*%
G71*
G01*
G75*
%ADD15R,1.2700X0.7000*%
%ADD18R,0.7000X1.2700*%
%ADD43C,0.3000*%
%ADD44C,0.5000*%
%ADD46R,1.5000X1.5000*%
%ADD47C,1.5000*%
%ADD48C,1.4000*%
%ADD49C,1.6000*%
%ADD50O,1.0000X2.0000*%
%ADD51R,1.0000X2.0000*%
%ADD52O,2.0000X1.0000*%
%ADD53R,2.0000X1.0000*%
%ADD54C,1.8000*%
%ADD55C,4.0000*%
%ADD56C,0.5000*%
%ADD57C,2.0000*%
%ADD58R,1.1000X1.3000*%
%ADD59O,0.6000X1.7000*%
%ADD60O,1.7000X0.6000*%
%ADD61R,1.6000X2.1800*%
%ADD62R,1.7000X1.8000*%
G36*
X106922Y115311D02*
Y67000D01*
X88078D01*
Y80000D01*
X87768Y81561D01*
X86884Y82884D01*
X86884Y82884D01*
X74884Y94884D01*
X73561Y95768D01*
X72000Y96078D01*
X72000Y96078D01*
X61593D01*
X61298Y96791D01*
X59775Y98775D01*
X57791Y100298D01*
X55480Y101255D01*
X53000Y101582D01*
X50520Y101255D01*
X48209Y100298D01*
X46224Y98775D01*
X44702Y96791D01*
X43745Y94480D01*
X43418Y92000D01*
X43745Y89520D01*
X44040Y88807D01*
X25116Y69884D01*
X24232Y68561D01*
X23922Y67000D01*
X22025Y64850D01*
X22000D01*
Y47150D01*
X23922D01*
Y42078D01*
X-26535D01*
X-26822Y44263D01*
X-28082Y47304D01*
X-30085Y49915D01*
X-31321Y50863D01*
X-31515Y51345D01*
X-31408Y54370D01*
X-31346Y54488D01*
X-29729Y55728D01*
X-27645Y58444D01*
X-26335Y61606D01*
X-26086Y63500D01*
X-51915D01*
X-51666Y61606D01*
X-50356Y58444D01*
X-48272Y55728D01*
X-46655Y54488D01*
X-46594Y54370D01*
X-46486Y51345D01*
X-46681Y50863D01*
X-47916Y49915D01*
X-49919Y47304D01*
X-51179Y44263D01*
X-51609Y41000D01*
X-51213Y38000D01*
X-51272Y37616D01*
X-53292Y35000D01*
X-121045D01*
X-121390Y35143D01*
X-124000Y35486D01*
X-126610Y35143D01*
X-126955Y35000D01*
X-139922D01*
Y80311D01*
X-107311Y112922D01*
X-14000D01*
Y108150D01*
X-2000D01*
Y113000D01*
X6000D01*
Y108150D01*
X18000D01*
Y125232D01*
X34689Y141922D01*
X80311D01*
X106922Y115311D01*
D02*
G37*
G36*
X110616Y43616D02*
X110616Y43616D01*
X111939Y42732D01*
X113500Y42422D01*
X126003D01*
X129922Y38503D01*
Y21750D01*
X112537Y21750D01*
X112537Y21750D01*
X111000Y21598D01*
X109049Y21210D01*
X107395Y20105D01*
X106290Y18451D01*
X105902Y16500D01*
X106290Y14549D01*
X107217Y12500D01*
X106290Y10451D01*
X105902Y8500D01*
X106290Y6549D01*
X107217Y4500D01*
X106290Y2451D01*
X105902Y500D01*
X106290Y-1451D01*
X107217Y-3500D01*
X106290Y-5549D01*
X105902Y-7500D01*
X106290Y-9451D01*
X107217Y-11500D01*
X106290Y-13549D01*
X105902Y-15500D01*
X106290Y-17451D01*
X107217Y-19500D01*
X106290Y-21549D01*
X105902Y-23500D01*
X106290Y-25451D01*
X107395Y-27105D01*
Y-27895D01*
X106290Y-29549D01*
X105902Y-31500D01*
X106290Y-33451D01*
X106922Y-34849D01*
X105467Y-37659D01*
X103500Y-37922D01*
X81000D01*
X79439Y-38232D01*
X78116Y-39116D01*
X78116Y-39116D01*
X74116Y-43116D01*
X71341Y-43848D01*
X70500Y-43681D01*
Y-55000D01*
X67500D01*
Y-43181D01*
X65078Y-41571D01*
Y15893D01*
X65078Y15893D01*
X64768Y17454D01*
X65517Y20773D01*
X65793Y21110D01*
X67040Y21785D01*
X67134Y21773D01*
X69000Y21402D01*
X70951Y21790D01*
X72320Y22705D01*
X72674Y22174D01*
X74659Y20848D01*
X75500Y20681D01*
Y32000D01*
X78500D01*
Y20681D01*
X79341Y20848D01*
X81326Y22174D01*
X81680Y22705D01*
X83049Y21790D01*
X85000Y21402D01*
X86951Y21790D01*
X89000Y22717D01*
X91049Y21790D01*
X93000Y21402D01*
X94951Y21790D01*
X97000Y22717D01*
X99049Y21790D01*
X101000Y21402D01*
X102951Y21790D01*
X104605Y22895D01*
X105710Y24549D01*
X106098Y26500D01*
Y29000D01*
X106250D01*
Y43740D01*
X109250Y44982D01*
X110616Y43616D01*
D02*
G37*
G36*
X43049Y21790D02*
X45000Y21402D01*
X46788Y21758D01*
X47036Y21764D01*
X50480Y20713D01*
X50616Y20510D01*
X56922Y14204D01*
Y-42499D01*
X56430Y-43070D01*
X53922Y-44585D01*
X53000Y-44402D01*
X51049Y-44790D01*
X49000Y-45717D01*
X46951Y-44790D01*
X45000Y-44402D01*
X43049Y-44790D01*
X41395Y-45895D01*
X40290Y-47549D01*
X39902Y-49500D01*
Y-60500D01*
X40290Y-62451D01*
X40887Y-63345D01*
X25082Y-79150D01*
X16000D01*
Y-96850D01*
X28000D01*
Y-92078D01*
X35104D01*
X36049Y-92710D01*
X38000Y-93098D01*
X39951Y-92710D01*
X41605Y-91605D01*
X42710Y-89951D01*
X43098Y-88000D01*
X42710Y-86049D01*
X41605Y-84395D01*
X39951Y-83290D01*
X38000Y-82902D01*
X36887Y-83124D01*
X35332Y-80436D01*
X47059Y-68709D01*
X49000Y-68185D01*
X50941Y-68709D01*
X62668Y-80436D01*
X61113Y-83124D01*
X60000Y-82902D01*
X58049Y-83290D01*
X56395Y-84395D01*
X55290Y-86049D01*
X54902Y-88000D01*
X55290Y-89951D01*
X56395Y-91605D01*
X58049Y-92710D01*
X60000Y-93098D01*
X61951Y-92710D01*
X62896Y-92078D01*
X70000D01*
Y-96850D01*
X82000D01*
Y-79150D01*
X72918D01*
X68346Y-74578D01*
X69589Y-71578D01*
X72500D01*
X72500Y-71578D01*
X74061Y-71268D01*
X75384Y-70384D01*
X79884Y-65884D01*
X82659Y-66152D01*
X83500Y-66319D01*
Y-55000D01*
X86500D01*
Y-66319D01*
X87341Y-66152D01*
X89326Y-64826D01*
X89680Y-64295D01*
X91049Y-65210D01*
X93000Y-65598D01*
X94951Y-65210D01*
X97000Y-64283D01*
X99049Y-65210D01*
X101000Y-65598D01*
X102951Y-65210D01*
X103880Y-64589D01*
X104895Y-65605D01*
X106549Y-66710D01*
X108500Y-67098D01*
X112000D01*
X113951Y-66710D01*
X115605Y-65605D01*
X116201Y-64712D01*
X118898Y-64002D01*
X119754Y-64022D01*
X122261Y-66529D01*
X112395Y-76395D01*
X111290Y-78049D01*
X110902Y-80000D01*
Y-96038D01*
X62038Y-144902D01*
X26250D01*
Y-138500D01*
X20348D01*
Y-135250D01*
X19960Y-133299D01*
X18855Y-131645D01*
X-9395Y-103395D01*
X-11049Y-102290D01*
X-13000Y-101902D01*
X-14951Y-102290D01*
X-16605Y-103395D01*
X-17710Y-105049D01*
X-18098Y-107000D01*
X-17710Y-108951D01*
X-16605Y-110605D01*
X8290Y-135500D01*
X7048Y-138500D01*
X4250D01*
Y-161500D01*
X26250D01*
Y-155098D01*
X64150D01*
X66101Y-154710D01*
X67755Y-153605D01*
X119605Y-101755D01*
X120710Y-100101D01*
X121098Y-98150D01*
Y-82112D01*
X127210Y-76000D01*
X143850D01*
Y-64000D01*
X131268D01*
X116018Y-48750D01*
X117260Y-45750D01*
X137394Y-45750D01*
X149718Y-23750D01*
X192902Y-23750D01*
Y-70888D01*
X187895Y-75895D01*
X187895Y-75895D01*
X178395Y-85395D01*
X177290Y-87049D01*
X176902Y-89000D01*
Y-141881D01*
X173902Y-142633D01*
X173799Y-142439D01*
X170987Y-139013D01*
X167561Y-136201D01*
X163652Y-134112D01*
X159411Y-132826D01*
X155000Y-132391D01*
X150589Y-132826D01*
X146348Y-134112D01*
X142439Y-136201D01*
X139013Y-139013D01*
X136201Y-142439D01*
X134112Y-146348D01*
X132826Y-150589D01*
X132391Y-155000D01*
X132826Y-159411D01*
X134112Y-163652D01*
X136201Y-167561D01*
X138123Y-169902D01*
X136716Y-172902D01*
X91000D01*
X89049Y-173290D01*
X87395Y-174395D01*
X74388Y-187402D01*
X-9388D01*
X-33902Y-162888D01*
Y-94112D01*
X15112Y-45098D01*
X29500D01*
X31451Y-44710D01*
X31618Y-44598D01*
X35000D01*
X36951Y-44210D01*
X38605Y-43105D01*
X39710Y-41451D01*
X40098Y-39500D01*
X39710Y-37549D01*
X38784Y-35500D01*
X39710Y-33451D01*
X40098Y-31500D01*
X39710Y-29549D01*
X38605Y-27895D01*
Y-27105D01*
X39710Y-25451D01*
X40098Y-23500D01*
X39710Y-21549D01*
X38784Y-19500D01*
X39710Y-17451D01*
X40098Y-15500D01*
X39915Y-14578D01*
X41430Y-12070D01*
X42001Y-11578D01*
X44604D01*
X45549Y-12210D01*
X47500Y-12598D01*
X49451Y-12210D01*
X51105Y-11105D01*
X52210Y-9451D01*
X52598Y-7500D01*
X52210Y-5549D01*
X51105Y-3895D01*
X49451Y-2790D01*
X47500Y-2402D01*
X45549Y-2790D01*
X44604Y-3422D01*
X42001D01*
X41430Y-2930D01*
X39915Y-422D01*
X40098Y500D01*
X39710Y2451D01*
X38784Y4500D01*
X39710Y6549D01*
X40098Y8500D01*
X39710Y10451D01*
X38784Y12500D01*
X39710Y14549D01*
X40098Y16500D01*
X39710Y18451D01*
X39009Y19499D01*
X39561Y21745D01*
X40118Y22702D01*
X41395Y22895D01*
X43049Y21790D01*
D02*
G37*
G36*
X-44098Y-92000D02*
Y-165000D01*
X-43710Y-166951D01*
X-42605Y-168605D01*
X-15105Y-196105D01*
X-13451Y-197210D01*
X-11500Y-197598D01*
X76500D01*
X78451Y-197210D01*
X80105Y-196105D01*
X93112Y-183098D01*
X140533D01*
X141040Y-183605D01*
X142694Y-184710D01*
X144645Y-185098D01*
X155982D01*
X157130Y-187870D01*
X140000Y-205000D01*
X91642Y-231519D01*
X25412Y-247874D01*
X-23120Y-248929D01*
X-71904Y-239076D01*
X-94335Y-231519D01*
Y-145415D01*
X-107850Y-131900D01*
X-180250D01*
Y-91098D01*
X-53000D01*
X-52508Y-91000D01*
X-44919D01*
X-44098Y-92000D01*
D02*
G37*
%LPC*%
G36*
X28000Y101582D02*
X25520Y101255D01*
X23209Y100298D01*
X21225Y98775D01*
X19702Y96791D01*
X18744Y94480D01*
X18418Y92000D01*
X18744Y89520D01*
X19702Y87209D01*
X21225Y85225D01*
X23209Y83702D01*
X25520Y82745D01*
X28000Y82418D01*
X30480Y82745D01*
X32791Y83702D01*
X34775Y85225D01*
X36298Y87209D01*
X37255Y89520D01*
X37582Y92000D01*
X37255Y94480D01*
X36298Y96791D01*
X34775Y98775D01*
X32791Y100298D01*
X30480Y101255D01*
X28000Y101582D01*
D02*
G37*
G36*
X-37501Y77915D02*
Y66500D01*
X-26086D01*
X-26335Y68394D01*
X-27645Y71556D01*
X-29729Y74272D01*
X-32445Y76356D01*
X-35607Y77665D01*
X-37501Y77915D01*
D02*
G37*
G36*
X-40501D02*
X-42394Y77665D01*
X-45557Y76356D01*
X-48272Y74272D01*
X-50356Y71556D01*
X-51666Y68394D01*
X-51915Y66500D01*
X-40501D01*
Y77915D01*
D02*
G37*
G36*
X14500Y65350D02*
X9500D01*
Y57500D01*
X14500D01*
Y65350D01*
D02*
G37*
G36*
X6500D02*
X1500D01*
Y57500D01*
X6500D01*
Y65350D01*
D02*
G37*
G36*
X-122500Y61193D02*
Y52300D01*
X-113607D01*
X-113770Y53541D01*
X-114828Y56095D01*
X-116511Y58289D01*
X-118705Y59972D01*
X-121259Y61030D01*
X-122500Y61193D01*
D02*
G37*
G36*
X-125500Y61193D02*
X-126741Y61030D01*
X-129295Y59972D01*
X-131489Y58289D01*
X-133172Y56095D01*
X-134230Y53541D01*
X-134393Y52300D01*
X-125500D01*
Y61193D01*
D02*
G37*
G36*
X14500Y54500D02*
X9500D01*
Y46650D01*
X14500D01*
Y54500D01*
D02*
G37*
G36*
X6500D02*
X1500D01*
Y46650D01*
X6500D01*
Y54500D01*
D02*
G37*
G36*
X-113607Y49300D02*
X-122500D01*
Y40407D01*
X-121259Y40570D01*
X-118705Y41628D01*
X-116511Y43311D01*
X-114828Y45505D01*
X-113770Y48059D01*
X-113607Y49300D01*
D02*
G37*
G36*
X-125500D02*
X-134393D01*
X-134230Y48059D01*
X-133172Y45505D01*
X-131489Y43311D01*
X-129295Y41628D01*
X-126741Y40570D01*
X-125500Y40407D01*
Y49300D01*
D02*
G37*
G36*
X187000Y-32100D02*
X177500D01*
Y-44500D01*
X187000D01*
Y-32100D01*
D02*
G37*
G36*
X174500D02*
X165000D01*
Y-44500D01*
X174500D01*
Y-32100D01*
D02*
G37*
G36*
X187000Y-47500D02*
X177500D01*
Y-59900D01*
X187000D01*
Y-47500D01*
D02*
G37*
G36*
X174500D02*
X165000D01*
Y-59900D01*
X174500D01*
Y-47500D01*
D02*
G37*
G36*
X102500Y-78650D02*
X97500D01*
Y-86500D01*
X102500D01*
Y-78650D01*
D02*
G37*
G36*
X94500D02*
X89500D01*
Y-86500D01*
X94500D01*
Y-78650D01*
D02*
G37*
G36*
X8500D02*
X3500D01*
Y-86500D01*
X8500D01*
Y-78650D01*
D02*
G37*
G36*
X500D02*
X-4500D01*
Y-86500D01*
X500D01*
Y-78650D01*
D02*
G37*
G36*
X144350Y-83500D02*
X136500D01*
Y-88500D01*
X144350D01*
Y-83500D01*
D02*
G37*
G36*
X133500D02*
X125650D01*
Y-88500D01*
X133500D01*
Y-83500D01*
D02*
G37*
G36*
X144350Y-91500D02*
X136500D01*
Y-96500D01*
X144350D01*
Y-91500D01*
D02*
G37*
G36*
X133500D02*
X125650D01*
Y-96500D01*
X133500D01*
Y-91500D01*
D02*
G37*
G36*
X102500Y-89500D02*
X97500D01*
Y-97350D01*
X102500D01*
Y-89500D01*
D02*
G37*
G36*
X94500D02*
X89500D01*
Y-97350D01*
X94500D01*
Y-89500D01*
D02*
G37*
G36*
X8500Y-89500D02*
X3500D01*
Y-97350D01*
X8500D01*
Y-89500D01*
D02*
G37*
G36*
X500D02*
X-4500D01*
Y-97350D01*
X500D01*
Y-89500D01*
D02*
G37*
G36*
X151500Y-104103D02*
Y-113500D01*
X160897D01*
X160717Y-112128D01*
X159608Y-109453D01*
X157845Y-107155D01*
X155547Y-105392D01*
X152872Y-104283D01*
X151500Y-104103D01*
D02*
G37*
G36*
X148500D02*
X147128Y-104283D01*
X144453Y-105392D01*
X142155Y-107155D01*
X140392Y-109453D01*
X139283Y-112128D01*
X139103Y-113500D01*
X148500D01*
Y-104103D01*
D02*
G37*
G36*
X160897Y-116500D02*
X151500D01*
Y-125897D01*
X152872Y-125717D01*
X155547Y-124608D01*
X157845Y-122845D01*
X159608Y-120547D01*
X160717Y-117872D01*
X160897Y-116500D01*
D02*
G37*
G36*
X148500D02*
X139103D01*
X139283Y-117872D01*
X140392Y-120547D01*
X142155Y-122845D01*
X144453Y-124608D01*
X147128Y-125717D01*
X148500Y-125897D01*
Y-116500D01*
D02*
G37*
G36*
X115500Y-139103D02*
Y-148500D01*
X124897D01*
X124717Y-147128D01*
X123608Y-144452D01*
X121845Y-142155D01*
X119547Y-140392D01*
X116872Y-139283D01*
X115500Y-139103D01*
D02*
G37*
G36*
X-3750Y-138000D02*
X-13750D01*
Y-148500D01*
X-3750D01*
Y-138000D01*
D02*
G37*
G36*
X-16750D02*
X-26750D01*
Y-148500D01*
X-16750D01*
Y-138000D01*
D02*
G37*
G36*
X112500Y-139103D02*
X111128Y-139283D01*
X108453Y-140392D01*
X106155Y-142155D01*
X104391Y-144452D01*
X103283Y-147128D01*
X103103Y-148500D01*
X112500D01*
Y-139103D01*
D02*
G37*
G36*
Y-151500D02*
X103103D01*
X103283Y-152872D01*
X104391Y-155548D01*
X106155Y-157845D01*
X108453Y-159608D01*
X111128Y-160717D01*
X112500Y-160897D01*
Y-151500D01*
D02*
G37*
G36*
X124897D02*
X115500D01*
Y-160897D01*
X116872Y-160717D01*
X119547Y-159608D01*
X121845Y-157845D01*
X123608Y-155548D01*
X124717Y-152872D01*
X124897Y-151500D01*
D02*
G37*
G36*
X-3750D02*
X-13750D01*
Y-162000D01*
X-3750D01*
Y-151500D01*
D02*
G37*
G36*
X-16750D02*
X-26750D01*
Y-162000D01*
X-16750D01*
Y-151500D01*
D02*
G37*
G36*
X-148500Y-104103D02*
Y-113500D01*
X-139103D01*
X-139283Y-112128D01*
X-140392Y-109453D01*
X-142155Y-107155D01*
X-144453Y-105392D01*
X-147128Y-104283D01*
X-148500Y-104103D01*
D02*
G37*
G36*
X-151500D02*
X-152872Y-104283D01*
X-155547Y-105392D01*
X-157845Y-107155D01*
X-159608Y-109453D01*
X-160717Y-112128D01*
X-160897Y-113500D01*
X-151500D01*
Y-104103D01*
D02*
G37*
G36*
X-139103Y-116500D02*
X-148500D01*
Y-125897D01*
X-147128Y-125717D01*
X-144453Y-124608D01*
X-142155Y-122845D01*
X-140392Y-120547D01*
X-139283Y-117872D01*
X-139103Y-116500D01*
D02*
G37*
G36*
X-151500D02*
X-160897D01*
X-160717Y-117872D01*
X-159608Y-120547D01*
X-157845Y-122845D01*
X-155547Y-124608D01*
X-152872Y-125717D01*
X-151500Y-125897D01*
Y-116500D01*
D02*
G37*
G36*
X111500Y-188094D02*
Y-198500D01*
X121906D01*
X121691Y-196867D01*
X120482Y-193948D01*
X118559Y-191441D01*
X116052Y-189518D01*
X113133Y-188309D01*
X111500Y-188094D01*
D02*
G37*
G36*
X108500D02*
X106867Y-188309D01*
X103948Y-189518D01*
X101441Y-191441D01*
X99518Y-193948D01*
X98309Y-196867D01*
X98094Y-198500D01*
X108500D01*
Y-188094D01*
D02*
G37*
G36*
X5000Y-207128D02*
X4412Y-207206D01*
X2465Y-208012D01*
X1778Y-208540D01*
X-1151Y-209651D01*
X-2718Y-208449D01*
X-4542Y-207693D01*
X-6500Y-207435D01*
X-8458Y-207693D01*
X-9000Y-207918D01*
X-12000Y-207500D01*
Y-207500D01*
X-27000D01*
Y-232500D01*
X-12000D01*
X-12000Y-232500D01*
X-9000Y-232082D01*
X-8458Y-232307D01*
X-6500Y-232565D01*
X-4542Y-232307D01*
X-2718Y-231551D01*
X-1151Y-230349D01*
X1778Y-231460D01*
X2465Y-231988D01*
X4412Y-232794D01*
X5000Y-232871D01*
Y-220000D01*
Y-207128D01*
D02*
G37*
G36*
X121906Y-201500D02*
X111500D01*
Y-211906D01*
X113133Y-211691D01*
X116052Y-210482D01*
X118559Y-208559D01*
X120482Y-206052D01*
X121691Y-203133D01*
X121906Y-201500D01*
D02*
G37*
G36*
X108500D02*
X98094D01*
X98309Y-203133D01*
X99518Y-206052D01*
X101441Y-208559D01*
X103948Y-210482D01*
X106867Y-211691D01*
X108500Y-211906D01*
Y-201500D01*
D02*
G37*
G36*
X8000Y-207128D02*
Y-220000D01*
Y-232871D01*
X8588Y-232794D01*
X10534Y-231988D01*
X11222Y-231460D01*
X14151Y-230349D01*
X15718Y-231551D01*
X17542Y-232307D01*
X19500Y-232565D01*
X21458Y-232307D01*
X23282Y-231551D01*
X24849Y-230349D01*
X26051Y-228782D01*
X26807Y-226958D01*
X27065Y-225000D01*
Y-215000D01*
X26807Y-213042D01*
X26051Y-211218D01*
X24849Y-209651D01*
X23282Y-208449D01*
X21458Y-207693D01*
X19500Y-207435D01*
X17542Y-207693D01*
X15718Y-208449D01*
X14151Y-209651D01*
X11222Y-208540D01*
X10534Y-208012D01*
X8588Y-207206D01*
X8000Y-207128D01*
D02*
G37*
%LPD*%
D15*
X135000Y-70000D02*
D03*
Y-90000D02*
D03*
D18*
X28000Y56000D02*
D03*
X8000D02*
D03*
X-93000Y-49000D02*
D03*
X-73000D02*
D03*
X104000Y56000D02*
D03*
X84000D02*
D03*
X22000Y-88000D02*
D03*
X2000D02*
D03*
X66000Y56000D02*
D03*
X46000D02*
D03*
X76000Y-88000D02*
D03*
X96000D02*
D03*
X-8000Y117000D02*
D03*
X12000D02*
D03*
D43*
X131500Y-70000D02*
X135000D01*
X103500Y-42000D02*
X131500Y-70000D01*
X81000Y-42000D02*
X103500D01*
X77000Y-63000D02*
Y-55000D01*
X72500Y-67500D02*
X77000Y-63000D01*
X66101Y-67500D02*
X72500D01*
X61000Y-55000D02*
X62000Y-56000D01*
Y-63400D02*
Y-56000D01*
Y-63400D02*
X66101Y-67500D01*
X61000Y-55000D02*
Y15893D01*
X53500Y23393D02*
X61000Y15893D01*
X29500Y-7500D02*
X47500D01*
X134000Y72000D02*
X137000Y75000D01*
X85000Y32000D02*
Y39493D01*
X77000Y-55000D02*
Y-47000D01*
X52500Y32500D02*
Y40607D01*
Y32500D02*
X53000Y32000D01*
X116500Y-31500D02*
X117000Y-32000D01*
X69000Y32000D02*
Y42000D01*
X-122000Y25400D02*
X-115600Y19000D01*
X40750Y27750D02*
X45000Y32000D01*
X-25250Y27750D02*
X40750D01*
X-36000Y17000D02*
X-25250Y27750D01*
X-115600Y19000D02*
X-68000D01*
X-114000Y7000D02*
X-77000D01*
X-121000Y0D02*
X-114000Y7000D01*
X-75000Y-2000D02*
X-58500Y14500D01*
X-100600Y-2000D02*
X-75000D01*
X-58500Y14500D02*
Y21501D01*
X28000Y67000D02*
X53000Y92000D01*
X28000Y56000D02*
Y67000D01*
X66000Y45000D02*
Y56000D01*
Y45000D02*
X69000Y42000D01*
X74000Y50493D02*
X85000Y39493D01*
X74000Y50493D02*
Y73000D01*
X84000Y56000D02*
Y80000D01*
X48107Y45000D02*
X52500Y40607D01*
X41893Y45000D02*
X48107D01*
X70000Y82000D02*
Y84000D01*
X46000Y58000D02*
X70000Y82000D01*
X46000Y56000D02*
Y58000D01*
X72000Y92000D02*
X84000Y80000D01*
X53000Y92000D02*
X72000D01*
X33000Y146000D02*
X82000D01*
X12000Y125000D02*
X33000Y146000D01*
X12000Y117000D02*
Y125000D01*
X111000Y63000D02*
Y117000D01*
X82000Y146000D02*
X111000Y117000D01*
X34893Y38000D02*
X41893Y45000D01*
X28000Y38000D02*
X34893D01*
X-108700Y-59000D02*
X-108350Y-59350D01*
X-135200Y-50800D02*
X-124000D01*
X-144000Y-42000D02*
X-135200Y-50800D01*
X-144000Y-42000D02*
Y82000D01*
X-58500Y21501D02*
X-39001Y41000D01*
X-71500Y-15499D02*
X-39001Y17000D01*
X-36000Y38000D02*
X28000D01*
Y56000D01*
X-39001Y41000D02*
X-36000Y38000D01*
X104000Y56000D02*
X111000Y63000D01*
X-94500Y-18000D02*
X-93000Y-19500D01*
Y-49000D02*
Y-19500D01*
X-71500Y-18000D02*
Y-15499D01*
X-109000Y117000D02*
X-8000D01*
X-144000Y82000D02*
X-109000Y117000D01*
X77000Y-46000D02*
X81000Y-42000D01*
X116500Y-23500D02*
X117000Y-24000D01*
X129000D01*
X116000Y-31000D02*
X116500Y-31500D01*
X117000Y-32000D02*
X129000D01*
X-124000Y25400D02*
X-122000D01*
X-124000Y0D02*
X-121000D01*
X117000Y-15000D02*
X128864D01*
X176000Y32136D02*
Y46000D01*
X22000Y-88000D02*
X38000D01*
X85000Y32000D02*
X85500Y32500D01*
X116500Y-15500D02*
X117000Y-15000D01*
X-39001Y17000D02*
X-36000D01*
X53000Y32000D02*
X53500Y31500D01*
Y23393D02*
Y31500D01*
X60000Y-88000D02*
X76000D01*
X22000D02*
X45000Y-65000D01*
Y-55000D01*
X53000Y-65000D02*
X76000Y-88000D01*
X53000Y-65000D02*
Y-55000D01*
X104000Y56000D02*
X113500Y46500D01*
X127692D01*
X134000Y40192D01*
Y-9864D02*
Y40192D01*
X128864Y-15000D02*
X134000Y-9864D01*
X176000Y32136D01*
X134000Y40192D02*
Y72000D01*
X-108350Y-59350D02*
X-77350D01*
X-73000Y-55000D01*
Y-49000D01*
X-124000Y-25400D02*
X-100600Y-2000D01*
D44*
X13000Y-40000D02*
X29500D01*
X79000Y190000D02*
X85000Y184000D01*
Y157000D02*
Y184000D01*
Y157000D02*
X147000Y95000D01*
X116000Y-98150D02*
Y-80000D01*
X64150Y-150000D02*
X116000Y-98150D01*
X15250Y-150000D02*
X64150D01*
X116000Y-80000D02*
X126000Y-70000D01*
X5750Y16500D02*
X29500D01*
X-17750Y-7000D02*
X5750Y16500D01*
X-39001Y-7000D02*
X-17750D01*
X1500Y-31500D02*
X29500D01*
X-53000Y-86000D02*
X1500Y-31500D01*
X-182000Y-86000D02*
X-53000D01*
X-52000Y190000D02*
X79000D01*
X-162500Y79500D02*
X-52000Y190000D01*
X-191500Y79500D02*
X-162500D01*
X154000Y95000D02*
X198000Y51000D01*
Y-73000D02*
Y51000D01*
X191500Y-79500D02*
X198000Y-73000D01*
X-11500Y-192500D02*
X76500D01*
X-39000Y-165000D02*
X-11500Y-192500D01*
X-39000Y-165000D02*
Y-92000D01*
X13000Y-40000D01*
X-13000Y-107000D02*
X15250Y-135250D01*
X108500Y-62000D02*
X112000D01*
X101500Y-55000D02*
X108500Y-62000D01*
X15250Y-150000D02*
Y-135250D01*
X147000Y95000D02*
X154000D01*
X29500Y16500D02*
X29500Y16500D01*
X29500Y8500D02*
X29500Y8500D01*
X16000Y8500D02*
X29500D01*
X-23500Y-31000D02*
X16000Y8500D01*
X-39001Y-31000D02*
X-23500D01*
X182000Y-163355D02*
Y-89000D01*
X191500Y-79500D01*
X76500Y-192500D02*
X91000Y-178000D01*
X142645D01*
X144645Y-180000D01*
X165355D01*
X182000Y-163355D01*
X-188000Y-80000D02*
X-182000Y-86000D01*
X126000Y-70000D02*
X131399D01*
D46*
X-124000Y-50800D02*
D03*
D47*
Y-25400D02*
D03*
Y0D02*
D03*
Y25400D02*
D03*
Y50800D02*
D03*
D48*
X28000Y92000D02*
D03*
X53000D02*
D03*
D49*
X-150000Y-115000D02*
D03*
Y115000D02*
D03*
X-116000Y-150000D02*
D03*
X114000D02*
D03*
X150000Y-115000D02*
D03*
Y115000D02*
D03*
X-115000Y150000D02*
D03*
X115000D02*
D03*
D50*
X19500Y-220000D02*
D03*
X6500D02*
D03*
X-6500D02*
D03*
X19500Y220000D02*
D03*
X6500D02*
D03*
X-6500D02*
D03*
D51*
X-19500Y-220000D02*
D03*
Y220000D02*
D03*
D52*
X220000Y-19500D02*
D03*
Y-6500D02*
D03*
Y6500D02*
D03*
X-220000Y19500D02*
D03*
Y6500D02*
D03*
Y-6500D02*
D03*
D53*
X220000Y19500D02*
D03*
X-220000Y-19500D02*
D03*
D54*
X-110000Y-200000D02*
D03*
X110000D02*
D03*
D55*
X155000Y-155000D02*
D03*
X-155000D02*
D03*
Y155000D02*
D03*
X155000D02*
D03*
D56*
X100250Y2000D02*
D03*
X125250Y38750D02*
D03*
X47500Y-7500D02*
D03*
X-68000Y19000D02*
D03*
X-77000Y7000D02*
D03*
X63000Y138000D02*
D03*
X77000D02*
D03*
X91000Y104000D02*
D03*
X84000D02*
D03*
X70000D02*
D03*
X77000D02*
D03*
X70000Y84000D02*
D03*
X56000Y138000D02*
D03*
X70000D02*
D03*
X-108700Y-59000D02*
D03*
X74000Y73000D02*
D03*
X-13000Y-107000D02*
D03*
X112000Y-62000D02*
D03*
X129000Y-24000D02*
D03*
Y-32000D02*
D03*
X-188000Y-80000D02*
D03*
X79000Y190000D02*
D03*
X191500Y-79500D02*
D03*
X76500Y-192500D02*
D03*
X-191500Y79500D02*
D03*
X38000Y-88000D02*
D03*
X60000D02*
D03*
D57*
X-39001Y41000D02*
D03*
Y65000D02*
D03*
Y17000D02*
D03*
Y-7000D02*
D03*
Y-31000D02*
D03*
X134000Y75000D02*
D03*
D58*
X-94500Y-18000D02*
D03*
X-71500D02*
D03*
D59*
X101000Y-55000D02*
D03*
X93000D02*
D03*
X85000D02*
D03*
X77000D02*
D03*
X69000D02*
D03*
X61000D02*
D03*
X53000D02*
D03*
X45000D02*
D03*
Y32000D02*
D03*
X53000D02*
D03*
X61000D02*
D03*
X69000D02*
D03*
X77000D02*
D03*
X85000D02*
D03*
X93000D02*
D03*
X101000D02*
D03*
D60*
X29500Y-39500D02*
D03*
Y-31500D02*
D03*
Y-23500D02*
D03*
Y-15500D02*
D03*
Y-7500D02*
D03*
Y500D02*
D03*
Y8500D02*
D03*
Y16500D02*
D03*
X116500D02*
D03*
Y8500D02*
D03*
Y500D02*
D03*
Y-7500D02*
D03*
Y-15500D02*
D03*
Y-23500D02*
D03*
Y-31500D02*
D03*
Y-39500D02*
D03*
D61*
X176000Y46000D02*
D03*
Y-46000D02*
D03*
D62*
X-15250Y-150000D02*
D03*
X15250D02*
D03*
M02*
