G04*
G04 #@! TF.GenerationSoftware,Altium Limited,Altium Designer,20.0.2 (26)*
G04*
G04 Layer_Physical_Order=1*
G04 Layer_Color=255*
%FSLAX44Y44*%
%MOMM*%
G71*
G01*
G75*
%ADD14R,2.0000X2.0000*%
%ADD15R,1.2700X0.7000*%
%ADD16R,1.1000X4.4500*%
%ADD17R,9.6500X7.8000*%
%ADD18R,0.7000X1.2700*%
%ADD19R,5.5000X2.0000*%
%ADD20R,0.6500X1.2000*%
%ADD21R,1.7000X0.9000*%
%ADD22R,0.9000X1.7000*%
%ADD42C,0.8000*%
%ADD43C,0.3000*%
%ADD44C,0.5000*%
%ADD45C,1.0000*%
%ADD46R,1.5000X1.5000*%
%ADD47C,1.5000*%
%ADD48C,1.4000*%
%ADD49C,1.6000*%
%ADD50O,1.0000X2.0000*%
%ADD51R,1.0000X2.0000*%
%ADD52O,2.0000X1.0000*%
%ADD53R,2.0000X1.0000*%
%ADD54C,1.8000*%
%ADD55C,4.0000*%
%ADD56C,0.5000*%
G36*
X8000Y207128D02*
X8588Y207206D01*
X10534Y208012D01*
X11222Y208540D01*
X14151Y209651D01*
X15718Y208449D01*
X17542Y207693D01*
X19500Y207435D01*
X21458Y207693D01*
X23282Y208449D01*
X24849Y209651D01*
X26051Y211218D01*
X26133Y211415D01*
X29579Y212212D01*
X35000Y206790D01*
Y195000D01*
X93482Y176000D01*
X129235D01*
X129549Y175790D01*
X131500Y175402D01*
X132455D01*
Y155643D01*
X132391Y155000D01*
X132455Y154357D01*
Y134098D01*
X37612D01*
X21500Y150210D01*
Y161000D01*
X8097D01*
X-2627Y174297D01*
X-1790Y175549D01*
X-1402Y177500D01*
Y207362D01*
X-1020Y207698D01*
X1505Y208643D01*
X1778Y208540D01*
X2465Y208012D01*
X4412Y207206D01*
X5000Y207128D01*
Y220000D01*
X8000D01*
Y207128D01*
D02*
G37*
G36*
X140828Y109705D02*
X142511Y107511D01*
X144705Y105828D01*
X147259Y104770D01*
X150000Y104409D01*
X152741Y104770D01*
X155295Y105828D01*
X156902Y107061D01*
X158936Y106442D01*
X159902Y105728D01*
Y58112D01*
X132164Y30374D01*
X130875Y30181D01*
X128158Y30610D01*
X116000Y42768D01*
X116000Y79000D01*
X100850D01*
Y79000D01*
X83150D01*
Y79000D01*
X80150Y79000D01*
X63000D01*
Y110444D01*
X140522D01*
X140828Y109705D01*
D02*
G37*
G36*
X-105750Y102478D02*
Y28000D01*
X-101556D01*
Y-65284D01*
X-120636Y-84364D01*
X-121678Y-85722D01*
X-122333Y-87303D01*
X-122556Y-89000D01*
Y-98329D01*
X-123000Y-98660D01*
X-123000Y-132000D01*
X-174902Y-132000D01*
Y-130000D01*
X-175290Y-128049D01*
X-176395Y-126395D01*
X-204402Y-98388D01*
Y-86500D01*
X-199000D01*
Y-85098D01*
X-188000D01*
X-186049Y-84710D01*
X-184395Y-83605D01*
X-183290Y-81951D01*
X-182902Y-80000D01*
X-183290Y-78049D01*
X-184395Y-76395D01*
X-186049Y-75290D01*
X-188000Y-74902D01*
X-199000D01*
Y-72500D01*
X-205002D01*
X-205290Y-71049D01*
X-206395Y-69395D01*
X-215519Y-60272D01*
X-214371Y-57500D01*
X-199000D01*
Y-43500D01*
X-204902D01*
Y-39000D01*
X-205290Y-37049D01*
X-206395Y-35395D01*
X-212019Y-29772D01*
X-210871Y-27000D01*
X-207500D01*
Y-12000D01*
X-204667Y-11598D01*
X-202612D01*
X-196105Y-18105D01*
X-194451Y-19210D01*
X-192500Y-19598D01*
X-161000D01*
Y-21500D01*
X-139000D01*
Y-7500D01*
X-161000D01*
Y-9402D01*
X-190388D01*
X-196895Y-2895D01*
X-198549Y-1790D01*
X-200500Y-1402D01*
X-207362D01*
X-207698Y-1020D01*
X-208643Y1505D01*
X-208540Y1778D01*
X-208012Y2465D01*
X-207206Y4412D01*
X-207128Y5000D01*
X-220000D01*
Y8000D01*
X-207128D01*
X-207206Y8588D01*
X-208012Y10534D01*
X-208540Y11222D01*
X-209651Y14151D01*
X-208449Y15718D01*
X-207693Y17542D01*
X-207435Y19500D01*
X-207693Y21458D01*
X-208449Y23282D01*
X-209651Y24849D01*
X-210244Y25304D01*
X-210943Y28847D01*
X-206395Y33395D01*
X-205290Y35049D01*
X-204902Y37000D01*
Y43500D01*
X-199000D01*
Y56000D01*
X-158151Y96849D01*
X-155098Y93797D01*
Y21500D01*
X-161000D01*
Y7500D01*
X-139000D01*
Y21500D01*
X-144902D01*
Y95908D01*
X-145290Y97859D01*
X-146395Y99513D01*
X-148468Y101585D01*
X-147392Y104753D01*
X-147259Y104770D01*
X-144705Y105828D01*
X-144481Y106000D01*
X-109272D01*
X-105750Y102478D01*
D02*
G37*
G36*
X247768Y-228D02*
X243000Y-46000D01*
X219000Y-113000D01*
X175403Y-174478D01*
X132207Y-209035D01*
X92340Y-231851D01*
X89745Y-230346D01*
Y-151255D01*
X155035Y-85965D01*
Y-83317D01*
X155098Y-83000D01*
Y-28950D01*
X200582Y1402D01*
X207362D01*
X207698Y1020D01*
X208643Y-1505D01*
X208540Y-1778D01*
X208012Y-2465D01*
X207206Y-4412D01*
X207128Y-5000D01*
X232871D01*
X232794Y-4412D01*
X231988Y-2465D01*
X231460Y-1778D01*
X231011Y-594D01*
X232513Y2000D01*
X245760D01*
X247768Y-228D01*
D02*
G37*
%LPC*%
G36*
X116500Y160897D02*
Y151500D01*
X125897D01*
X125717Y152872D01*
X124608Y155548D01*
X122845Y157845D01*
X120548Y159608D01*
X117872Y160717D01*
X116500Y160897D01*
D02*
G37*
G36*
X113500D02*
X112128Y160717D01*
X109452Y159608D01*
X107155Y157845D01*
X105392Y155548D01*
X104283Y152872D01*
X104103Y151500D01*
X113500D01*
Y160897D01*
D02*
G37*
G36*
X125897Y148500D02*
X116500D01*
Y139103D01*
X117872Y139283D01*
X120548Y140392D01*
X122845Y142155D01*
X124608Y144452D01*
X125717Y147128D01*
X125897Y148500D01*
D02*
G37*
G36*
X113500D02*
X104103D01*
X104283Y147128D01*
X105392Y144452D01*
X107155Y142155D01*
X109452Y140392D01*
X112128Y139283D01*
X113500Y139103D01*
Y148500D01*
D02*
G37*
G36*
X101350Y99500D02*
X93500D01*
Y94500D01*
X101350D01*
Y99500D01*
D02*
G37*
G36*
X90500D02*
X82650D01*
Y94500D01*
X90500D01*
Y99500D01*
D02*
G37*
G36*
X101350Y91500D02*
X93500D01*
Y86500D01*
X101350D01*
Y91500D01*
D02*
G37*
G36*
X90500D02*
X82650D01*
Y86500D01*
X90500D01*
Y91500D01*
D02*
G37*
G36*
X-122500Y61193D02*
Y52300D01*
X-113607D01*
X-113770Y53541D01*
X-114828Y56095D01*
X-116511Y58289D01*
X-118705Y59972D01*
X-121259Y61030D01*
X-122500Y61193D01*
D02*
G37*
G36*
X-125500Y61193D02*
X-126741Y61030D01*
X-129295Y59972D01*
X-131489Y58289D01*
X-133172Y56095D01*
X-134230Y53541D01*
X-134393Y52300D01*
X-125500D01*
Y61193D01*
D02*
G37*
G36*
X-113607Y49300D02*
X-122500D01*
Y40407D01*
X-121259Y40570D01*
X-118705Y41628D01*
X-116511Y43311D01*
X-114828Y45505D01*
X-113770Y48059D01*
X-113607Y49300D01*
D02*
G37*
G36*
X-125500D02*
X-134393D01*
X-134230Y48059D01*
X-133172Y45505D01*
X-131489Y43311D01*
X-129295Y41628D01*
X-126741Y40570D01*
X-125500Y40407D01*
Y49300D01*
D02*
G37*
G36*
X-124000Y35486D02*
X-126610Y35143D01*
X-129043Y34135D01*
X-131132Y32532D01*
X-132735Y30443D01*
X-133743Y28010D01*
X-134086Y25400D01*
X-133743Y22789D01*
X-132735Y20357D01*
X-131132Y18268D01*
X-129043Y16665D01*
X-126610Y15657D01*
X-124000Y15314D01*
X-121390Y15657D01*
X-118957Y16665D01*
X-116868Y18268D01*
X-115265Y20357D01*
X-114257Y22789D01*
X-113914Y25400D01*
X-114257Y28010D01*
X-115265Y30443D01*
X-116868Y32532D01*
X-118957Y34135D01*
X-121390Y35143D01*
X-124000Y35486D01*
D02*
G37*
G36*
Y10086D02*
X-126610Y9743D01*
X-129043Y8735D01*
X-131132Y7132D01*
X-132735Y5043D01*
X-133743Y2610D01*
X-134086Y0D01*
X-133743Y-2610D01*
X-132735Y-5043D01*
X-131132Y-7132D01*
X-129043Y-8735D01*
X-126610Y-9743D01*
X-124000Y-10086D01*
X-121390Y-9743D01*
X-118957Y-8735D01*
X-116868Y-7132D01*
X-115265Y-5043D01*
X-114257Y-2610D01*
X-113914Y0D01*
X-114257Y2610D01*
X-115265Y5043D01*
X-116868Y7132D01*
X-118957Y8735D01*
X-121390Y9743D01*
X-124000Y10086D01*
D02*
G37*
G36*
Y-15314D02*
X-126610Y-15657D01*
X-129043Y-16665D01*
X-131132Y-18268D01*
X-132735Y-20357D01*
X-133743Y-22789D01*
X-134086Y-25400D01*
X-133743Y-28010D01*
X-132735Y-30443D01*
X-131132Y-32532D01*
X-129043Y-34135D01*
X-126610Y-35143D01*
X-124000Y-35486D01*
X-121390Y-35143D01*
X-118957Y-34135D01*
X-116868Y-32532D01*
X-115265Y-30443D01*
X-114257Y-28010D01*
X-113914Y-25400D01*
X-114257Y-22789D01*
X-115265Y-20357D01*
X-116868Y-18268D01*
X-118957Y-16665D01*
X-121390Y-15657D01*
X-124000Y-15314D01*
D02*
G37*
G36*
X-114000Y-40800D02*
X-134000D01*
Y-60800D01*
X-114000D01*
Y-40800D01*
D02*
G37*
G36*
X-148500Y-104103D02*
Y-113500D01*
X-139103D01*
X-139283Y-112128D01*
X-140392Y-109453D01*
X-142155Y-107155D01*
X-144453Y-105392D01*
X-147128Y-104283D01*
X-148500Y-104103D01*
D02*
G37*
G36*
X-151500D02*
X-152872Y-104283D01*
X-155547Y-105392D01*
X-157845Y-107155D01*
X-159608Y-109453D01*
X-160717Y-112128D01*
X-160897Y-113500D01*
X-151500D01*
Y-104103D01*
D02*
G37*
G36*
X-139103Y-116500D02*
X-148500D01*
Y-125897D01*
X-147128Y-125717D01*
X-144453Y-124608D01*
X-142155Y-122845D01*
X-140392Y-120547D01*
X-139283Y-117872D01*
X-139103Y-116500D01*
D02*
G37*
G36*
X-151500D02*
X-160897D01*
X-160717Y-117872D01*
X-159608Y-120547D01*
X-157845Y-122845D01*
X-155547Y-124608D01*
X-152872Y-125717D01*
X-151500Y-125897D01*
Y-116500D01*
D02*
G37*
G36*
X232871Y-8000D02*
X207128D01*
X207206Y-8588D01*
X208012Y-10534D01*
X208540Y-11222D01*
X209651Y-14151D01*
X208449Y-15718D01*
X207693Y-17542D01*
X207435Y-19500D01*
X207693Y-21458D01*
X208449Y-23282D01*
X209651Y-24849D01*
X210810Y-25738D01*
X211270Y-26950D01*
X211412Y-29379D01*
X206395Y-34395D01*
X205290Y-36049D01*
X204902Y-38000D01*
Y-43500D01*
X199000D01*
Y-57500D01*
X221000D01*
Y-43500D01*
X215098D01*
Y-40112D01*
X223605Y-31605D01*
X224710Y-29951D01*
X225098Y-28000D01*
Y-27052D01*
X226958Y-26807D01*
X228782Y-26051D01*
X230349Y-24849D01*
X231551Y-23282D01*
X232307Y-21458D01*
X232565Y-19500D01*
X232307Y-17542D01*
X231551Y-15718D01*
X230349Y-14151D01*
X231460Y-11222D01*
X231988Y-10534D01*
X232794Y-8588D01*
X232871Y-8000D01*
D02*
G37*
G36*
X221000Y-72500D02*
X199000D01*
Y-74402D01*
X191500D01*
X189549Y-74790D01*
X187895Y-75895D01*
X186790Y-77549D01*
X186402Y-79500D01*
X186790Y-81451D01*
X187895Y-83105D01*
X189549Y-84210D01*
X191500Y-84598D01*
X199000D01*
Y-86500D01*
X221000D01*
Y-72500D01*
D02*
G37*
G36*
X151500Y-104103D02*
Y-113500D01*
X160897D01*
X160717Y-112128D01*
X159608Y-109453D01*
X157845Y-107155D01*
X155547Y-105392D01*
X152872Y-104283D01*
X151500Y-104103D01*
D02*
G37*
G36*
X148500D02*
X147128Y-104283D01*
X144453Y-105392D01*
X142155Y-107155D01*
X140392Y-109453D01*
X139283Y-112128D01*
X139103Y-113500D01*
X148500D01*
Y-104103D01*
D02*
G37*
G36*
X160897Y-116500D02*
X151500D01*
Y-125897D01*
X152872Y-125717D01*
X155547Y-124608D01*
X157845Y-122845D01*
X159608Y-120547D01*
X160717Y-117872D01*
X160897Y-116500D01*
D02*
G37*
G36*
X148500D02*
X139103D01*
X139283Y-117872D01*
X140392Y-120547D01*
X142155Y-122845D01*
X144453Y-124608D01*
X147128Y-125717D01*
X148500Y-125897D01*
Y-116500D01*
D02*
G37*
G36*
X115500Y-139103D02*
Y-148500D01*
X124897D01*
X124717Y-147128D01*
X123608Y-144452D01*
X121845Y-142155D01*
X119547Y-140392D01*
X116872Y-139283D01*
X115500Y-139103D01*
D02*
G37*
G36*
X112500D02*
X111128Y-139283D01*
X108453Y-140392D01*
X106155Y-142155D01*
X104391Y-144452D01*
X103283Y-147128D01*
X103103Y-148500D01*
X112500D01*
Y-139103D01*
D02*
G37*
G36*
Y-151500D02*
X103103D01*
X103283Y-152872D01*
X104391Y-155548D01*
X106155Y-157845D01*
X108453Y-159608D01*
X111128Y-160717D01*
X112500Y-160897D01*
Y-151500D01*
D02*
G37*
G36*
X124897D02*
X115500D01*
Y-160897D01*
X116872Y-160717D01*
X119547Y-159608D01*
X121845Y-157845D01*
X123608Y-155548D01*
X124717Y-152872D01*
X124897Y-151500D01*
D02*
G37*
G36*
X155000Y-132391D02*
X150589Y-132826D01*
X146348Y-134112D01*
X142439Y-136201D01*
X139013Y-139013D01*
X136201Y-142439D01*
X134112Y-146348D01*
X132826Y-150589D01*
X132391Y-155000D01*
X132826Y-159411D01*
X134112Y-163652D01*
X136201Y-167561D01*
X139013Y-170987D01*
X142439Y-173799D01*
X146348Y-175888D01*
X150589Y-177174D01*
X155000Y-177609D01*
X159411Y-177174D01*
X163652Y-175888D01*
X167561Y-173799D01*
X170987Y-170987D01*
X173799Y-167561D01*
X175888Y-163652D01*
X177174Y-159411D01*
X177609Y-155000D01*
X177174Y-150589D01*
X175888Y-146348D01*
X173799Y-142439D01*
X170987Y-139013D01*
X167561Y-136201D01*
X163652Y-134112D01*
X159411Y-132826D01*
X155000Y-132391D01*
D02*
G37*
G36*
X111500Y-188094D02*
Y-198500D01*
X121906D01*
X121691Y-196867D01*
X120482Y-193948D01*
X118559Y-191441D01*
X116052Y-189518D01*
X113133Y-188309D01*
X111500Y-188094D01*
D02*
G37*
G36*
X108500D02*
X106867Y-188309D01*
X103948Y-189518D01*
X101441Y-191441D01*
X99518Y-193948D01*
X98309Y-196867D01*
X98094Y-198500D01*
X108500D01*
Y-188094D01*
D02*
G37*
G36*
X121906Y-201500D02*
X111500D01*
Y-211906D01*
X113133Y-211691D01*
X116052Y-210482D01*
X118559Y-208559D01*
X120482Y-206052D01*
X121691Y-203133D01*
X121906Y-201500D01*
D02*
G37*
G36*
X108500D02*
X98094D01*
X98309Y-203133D01*
X99518Y-206052D01*
X101441Y-208559D01*
X103948Y-210482D01*
X106867Y-211691D01*
X108500Y-211906D01*
Y-201500D01*
D02*
G37*
%LPD*%
D14*
X-82000Y-88000D02*
D03*
X-42000D02*
D03*
D15*
X92000Y73000D02*
D03*
Y93000D02*
D03*
X47000Y3000D02*
D03*
Y23000D02*
D03*
Y-43000D02*
D03*
Y-23000D02*
D03*
D16*
X-80400Y-40000D02*
D03*
X-29600D02*
D03*
D17*
X-55000Y69500D02*
D03*
D18*
X107000Y-39000D02*
D03*
X87000D02*
D03*
D19*
X96500Y-88000D02*
D03*
X1500D02*
D03*
D20*
X98500Y27000D02*
D03*
X108000Y2000D02*
D03*
X89000D02*
D03*
D21*
X-150000Y14500D02*
D03*
Y-14500D02*
D03*
X-210000Y50500D02*
D03*
Y79500D02*
D03*
Y-79500D02*
D03*
Y-50500D02*
D03*
X150000Y-14500D02*
D03*
Y14500D02*
D03*
X210000Y-50500D02*
D03*
Y-79500D02*
D03*
Y79500D02*
D03*
Y50500D02*
D03*
D22*
X-14500Y150000D02*
D03*
X14500D02*
D03*
X79500Y210000D02*
D03*
X50500D02*
D03*
X-50500D02*
D03*
X-79500D02*
D03*
X-14500Y-150000D02*
D03*
X14500D02*
D03*
X76500Y-210000D02*
D03*
X47500D02*
D03*
X-46500Y-214000D02*
D03*
X-75500D02*
D03*
D42*
X-81750Y-89000D02*
X-59750Y-67000D01*
X-36000D01*
X-29600Y-60600D01*
X-150000Y115000D02*
X-109000D01*
X-115000Y150000D02*
X-109000Y144000D01*
Y115000D02*
Y144000D01*
X2000Y117000D02*
X148000D01*
X-45500Y69500D02*
X2000Y117000D01*
X-29600Y-60600D02*
Y-40000D01*
X-110000Y-200000D02*
X-81750Y-171750D01*
Y-89000D01*
X-116000Y-150000D02*
Y-89000D01*
X-95000Y-68000D01*
Y37000D01*
X-109000Y115000D02*
X-63500Y69500D01*
D43*
X100250Y2000D02*
X108000D01*
X47500Y-7500D02*
X55500D01*
X35000Y50000D02*
X103000D01*
X4000Y19000D02*
X35000Y50000D01*
X-68000Y19000D02*
X4000D01*
X103000Y50000D02*
X126000Y27000D01*
X12000Y7000D02*
X44750Y39750D01*
X-77000Y7000D02*
X12000D01*
X126000Y-21000D02*
Y27000D01*
Y-21000D02*
X129000Y-24000D01*
X123000Y-32000D02*
X129000D01*
X116000Y-25000D02*
X123000Y-32000D01*
X116000Y-25000D02*
Y24407D01*
X100657Y39750D02*
X116000Y24407D01*
X44750Y39750D02*
X100657D01*
X47000Y73000D02*
X74000D01*
X28000Y92000D02*
X47000Y73000D01*
X107000Y-39000D02*
Y-26000D01*
X89000Y-8000D02*
X107000Y-26000D01*
X89000Y-8000D02*
Y2000D01*
X88500Y27000D02*
X98500D01*
X84500Y23000D02*
X88500Y27000D01*
X47000Y23000D02*
X84500D01*
X74000Y73000D02*
X92000D01*
X92314Y72686D01*
X36000Y-8000D02*
Y0D01*
Y-19000D02*
Y-8000D01*
X-80400Y-40000D02*
Y-21400D01*
X-67000Y-8000D02*
X36000D01*
X-80400Y-21400D02*
X-67000Y-8000D01*
X39000Y3000D02*
X47000D01*
X36000Y0D02*
X39000Y3000D01*
X55500Y-7500D02*
X87000Y-39000D01*
X-29600Y-40000D02*
X-26600Y-43000D01*
X47000D01*
X40000Y-23000D02*
X47000D01*
X36000Y-19000D02*
X40000Y-23000D01*
X1500Y-88000D02*
X38000D01*
X60000D02*
X96500D01*
D44*
X165000Y56000D02*
Y122000D01*
X133000Y24000D02*
X165000Y56000D01*
X133000Y2500D02*
Y24000D01*
X92000Y93000D02*
X92000Y93000D01*
X-180000Y-165355D02*
Y-130000D01*
X-209500Y-100500D02*
X-180000Y-130000D01*
X-209500Y-100500D02*
Y-80000D01*
X-162000Y-180000D02*
X-140994Y-201006D01*
X-165355Y-180000D02*
X-162000D01*
X-180000Y-165355D02*
X-165355Y-180000D01*
X-140994Y-201006D02*
X-129500D01*
X-36000Y-107000D02*
X-13000D01*
X115000Y-62000D02*
X136500Y-40500D01*
X112000Y-62000D02*
X115000D01*
X136500Y-40500D02*
Y-28000D01*
X150000Y-83000D02*
Y-14500D01*
X83000Y-150000D02*
X150000Y-83000D01*
X14500Y-150000D02*
X83000D01*
X136500Y-28000D02*
X150000Y-14500D01*
X-210000Y-79500D02*
X-209500Y-80000D01*
X-188000D01*
X79000Y190000D02*
Y209500D01*
X79500Y210000D01*
X191500Y-79500D02*
X210000D01*
X76500Y-210000D02*
Y-192500D01*
X-210000Y79500D02*
X-191500D01*
X210000D02*
Y106000D01*
X180500Y135500D02*
X210000Y106000D01*
X180500Y135500D02*
Y165562D01*
X165562Y180500D02*
X180500Y165562D01*
X131500Y180500D02*
X165562D01*
X83000Y229000D02*
X131500Y180500D01*
X48000Y229000D02*
X83000D01*
X41500Y235500D02*
X48000Y229000D01*
X-45778Y235500D02*
X41500D01*
X-71278Y210000D02*
X-45778Y235500D01*
X-79500Y210000D02*
X-71278D01*
X-228000Y83000D02*
X-180500Y130500D01*
X-238000Y31000D02*
X-228000Y41000D01*
X-238000Y-45000D02*
Y31000D01*
Y-45000D02*
X-210000Y-73000D01*
Y-79500D02*
Y-73000D01*
X-228000Y41000D02*
Y83000D01*
X-192500Y-14500D02*
X-150000D01*
X-200500Y-6500D02*
X-192500Y-14500D01*
X-210000Y37000D02*
Y50500D01*
X-220000Y27000D02*
X-210000Y37000D01*
X-180500Y130500D02*
Y165562D01*
X-165562Y180500D01*
X-109000D01*
X-79500Y210000D01*
X-129500Y154592D02*
X-116092Y168000D01*
X-129500Y144438D02*
Y154592D01*
X-144438Y129500D02*
X-129500Y144438D01*
X-155500Y129500D02*
X-144438D01*
X-163500Y121500D02*
X-155500Y129500D01*
X-116006Y-214500D02*
X-76000D01*
X-129500Y-201006D02*
X-116006Y-214500D01*
X-76000D02*
X-75500Y-214000D01*
X6278Y150000D02*
X14500D01*
X-7722Y136000D02*
X6278Y150000D01*
X-21278Y136000D02*
X-7722D01*
X-53278Y168000D02*
X-21278Y136000D01*
X-116092Y168000D02*
X-53278D01*
X-163500Y109408D02*
Y121500D01*
Y109408D02*
X-150000Y95908D01*
Y14500D02*
Y95908D01*
X133000Y2500D02*
X150000Y-14500D01*
X158000Y129000D02*
X165000Y122000D01*
X35500Y129000D02*
X158000D01*
X14500Y150000D02*
X35500Y129000D01*
X-46500Y-214000D02*
X-35000D01*
X-29000Y-220000D01*
X-19500D01*
X19500D02*
X29000D01*
X39000Y-210000D01*
X47500D01*
X-14500Y-190500D02*
Y-150000D01*
Y-190500D02*
X-6500Y-198500D01*
Y-220000D02*
Y-198500D01*
X39000Y210000D02*
X50500D01*
X29000Y220000D02*
X39000Y210000D01*
X19500Y220000D02*
X29000D01*
X-29000D02*
X-19500D01*
X-39000Y210000D02*
X-29000Y220000D01*
X-50500Y210000D02*
X-39000D01*
X-6500Y177500D02*
Y220000D01*
X-14500Y169500D02*
X-6500Y177500D01*
X-14500Y150000D02*
Y169500D01*
X-220000Y-29000D02*
Y-19500D01*
Y-29000D02*
X-210000Y-39000D01*
Y-50500D02*
Y-39000D01*
X-220000Y19500D02*
Y27000D01*
Y-6500D02*
X-200500D01*
X199500Y6500D02*
X220000D01*
X191500Y14500D02*
X199500Y6500D01*
X150000Y14500D02*
X191500D01*
X210000Y-50500D02*
Y-38000D01*
X220000Y-28000D01*
Y-19500D01*
X210000Y39000D02*
Y50500D01*
Y39000D02*
X220000Y29000D01*
Y19500D02*
Y29000D01*
X-42000Y-101000D02*
X-36000Y-107000D01*
X-42000Y-101000D02*
Y-89000D01*
D45*
X-95000Y37000D02*
X-62500Y69500D01*
X-55000D02*
X-45500D01*
X-62500D02*
X-55000D01*
X-63500D02*
X-62500D01*
X148000Y117000D02*
X150000Y115000D01*
D46*
X-124000Y-50800D02*
D03*
D47*
Y-25400D02*
D03*
Y0D02*
D03*
Y25400D02*
D03*
Y50800D02*
D03*
D48*
X28000Y92000D02*
D03*
X53000D02*
D03*
D49*
X-150000Y-115000D02*
D03*
Y115000D02*
D03*
X-116000Y-150000D02*
D03*
X114000D02*
D03*
X150000Y-115000D02*
D03*
Y115000D02*
D03*
X-115000Y150000D02*
D03*
X115000D02*
D03*
D50*
X19500Y-220000D02*
D03*
X6500D02*
D03*
X-6500D02*
D03*
X19500Y220000D02*
D03*
X6500D02*
D03*
X-6500D02*
D03*
D51*
X-19500Y-220000D02*
D03*
Y220000D02*
D03*
D52*
X220000Y-19500D02*
D03*
Y-6500D02*
D03*
Y6500D02*
D03*
X-220000Y19500D02*
D03*
Y6500D02*
D03*
Y-6500D02*
D03*
D53*
X220000Y19500D02*
D03*
X-220000Y-19500D02*
D03*
D54*
X-110000Y-200000D02*
D03*
X110000D02*
D03*
D55*
X155000Y-155000D02*
D03*
X-155000D02*
D03*
Y155000D02*
D03*
X155000D02*
D03*
D56*
X100250Y2000D02*
D03*
X125250Y38750D02*
D03*
X47500Y-7500D02*
D03*
X-68000Y19000D02*
D03*
X-77000Y7000D02*
D03*
X63000Y138000D02*
D03*
X77000D02*
D03*
X91000Y104000D02*
D03*
X84000D02*
D03*
X70000D02*
D03*
X77000D02*
D03*
X70000Y84000D02*
D03*
X56000Y138000D02*
D03*
X70000D02*
D03*
X-108700Y-59000D02*
D03*
X74000Y73000D02*
D03*
X-13000Y-107000D02*
D03*
X112000Y-62000D02*
D03*
X129000Y-24000D02*
D03*
Y-32000D02*
D03*
X-188000Y-80000D02*
D03*
X79000Y190000D02*
D03*
X191500Y-79500D02*
D03*
X76500Y-192500D02*
D03*
X-191500Y79500D02*
D03*
X38000Y-88000D02*
D03*
X60000D02*
D03*
M02*
