G04 Layer_Color=32768*
%FSLAX25Y25*%
%MOIN*%
G70*
G01*
G75*
%ADD43C,0.00591*%
D43*
X98425Y0D02*
X98420Y1001D01*
X98405Y2001D01*
X98379Y3002D01*
X98344Y4002D01*
X98298Y5001D01*
X98242Y6000D01*
X98176Y6999D01*
X98100Y7997D01*
X98013Y8994D01*
X97917Y9990D01*
X97810Y10985D01*
X97694Y11979D01*
X97567Y12971D01*
X97430Y13962D01*
X97283Y14952D01*
X97126Y15940D01*
X96959Y16927D01*
X96782Y17912D01*
X96595Y18895D01*
X96397Y19876D01*
X96190Y20855D01*
X95973Y21832D01*
X95746Y22807D01*
X95510Y23779D01*
X95263Y24749D01*
X95006Y25716D01*
X94740Y26680D01*
X94464Y27642D01*
X94178Y28601D01*
X93882Y29557D01*
X93577Y30510D01*
X93262Y31460D01*
X92937Y32407D01*
X92603Y33350D01*
X92259Y34290D01*
X91906Y35226D01*
X91543Y36158D01*
X91171Y37087D01*
X90789Y38012D01*
X90398Y38933D01*
X89997Y39850D01*
X89587Y40763D01*
X89168Y41672D01*
X88740Y42576D01*
X88302Y43476D01*
X87856Y44372D01*
X87400Y45263D01*
X86936Y46149D01*
X86462Y47030D01*
X85979Y47907D01*
X85488Y48779D01*
X84987Y49645D01*
X84478Y50507D01*
X83960Y51363D01*
X83434Y52214D01*
X82899Y53060D01*
X82355Y53900D01*
X81803Y54734D01*
X81242Y55563D01*
X80673Y56386D01*
X80096Y57203D01*
X79510Y58015D01*
X78916Y58820D01*
X78314Y59619D01*
X77704Y60412D01*
X77086Y61199D01*
X76459Y61980D01*
X75825Y62754D01*
X75183Y63522D01*
X74534Y64283D01*
X73876Y65037D01*
X73211Y65785D01*
X72539Y66526D01*
X71858Y67260D01*
X71171Y67987D01*
X70476Y68707D01*
X69774Y69420D01*
X69064Y70126D01*
X68348Y70824D01*
X67624Y71516D01*
X66894Y72199D01*
X66156Y72876D01*
X65412Y73545D01*
X64661Y74206D01*
X63903Y74859D01*
X63139Y75505D01*
X62368Y76143D01*
X61590Y76773D01*
X60807Y77395D01*
X60017Y78010D01*
X59220Y78616D01*
X58418Y79214D01*
X57610Y79804D01*
X56796Y80385D01*
X55975Y80958D01*
X55149Y81523D01*
X54318Y82080D01*
X53480Y82628D01*
X52637Y83167D01*
X51789Y83698D01*
X50936Y84220D01*
X50077Y84734D01*
X49213Y85239D01*
X48344Y85735D01*
X47469Y86222D01*
X46590Y86700D01*
X45706Y87169D01*
X44818Y87629D01*
X43925Y88080D01*
X43027Y88522D01*
X42125Y88955D01*
X41218Y89379D01*
X40307Y89793D01*
X39392Y90198D01*
X38473Y90594D01*
X37550Y90981D01*
X36623Y91358D01*
X35693Y91725D01*
X34758Y92084D01*
X33820Y92432D01*
X32879Y92771D01*
X31934Y93101D01*
X30986Y93421D01*
X30034Y93731D01*
X29080Y94031D01*
X28122Y94322D01*
X27162Y94603D01*
X26199Y94874D01*
X25233Y95136D01*
X24264Y95388D01*
X23293Y95629D01*
X22320Y95861D01*
X21344Y96083D01*
X20366Y96295D01*
X19386Y96497D01*
X18404Y96689D01*
X17420Y96871D01*
X16434Y97044D01*
X15447Y97206D01*
X14457Y97358D01*
X13467Y97500D01*
X12475Y97631D01*
X11482Y97753D01*
X10487Y97865D01*
X9492Y97966D01*
X8495Y98058D01*
X7498Y98139D01*
X6500Y98210D01*
X5501Y98271D01*
X4501Y98322D01*
X3502Y98363D01*
X2501Y98393D01*
X1501Y98414D01*
X500Y98424D01*
X-500D01*
X-1501Y98414D01*
X-2502Y98393D01*
X-3502Y98363D01*
X-4502Y98322D01*
X-5501Y98271D01*
X-6500Y98210D01*
X-7498Y98139D01*
X-8495Y98058D01*
X-9492Y97966D01*
X-10487Y97865D01*
X-11482Y97753D01*
X-12475Y97631D01*
X-13467Y97500D01*
X-14458Y97358D01*
X-15447Y97206D01*
X-16434Y97044D01*
X-17420Y96871D01*
X-18404Y96689D01*
X-19386Y96497D01*
X-20366Y96295D01*
X-21344Y96083D01*
X-22320Y95861D01*
X-23293Y95629D01*
X-24264Y95388D01*
X-25233Y95136D01*
X-26199Y94874D01*
X-27162Y94603D01*
X-28122Y94322D01*
X-29080Y94031D01*
X-30034Y93731D01*
X-30986Y93421D01*
X-31934Y93101D01*
X-32879Y92771D01*
X-33820Y92432D01*
X-34758Y92084D01*
X-35693Y91725D01*
X-36623Y91358D01*
X-37550Y90981D01*
X-38473Y90594D01*
X-39393Y90198D01*
X-40308Y89793D01*
X-41218Y89379D01*
X-42125Y88955D01*
X-43027Y88522D01*
X-43925Y88080D01*
X-44818Y87629D01*
X-45707Y87169D01*
X-46591Y86700D01*
X-47470Y86222D01*
X-48344Y85734D01*
X-49213Y85238D01*
X-50077Y84734D01*
X-50936Y84220D01*
X-51789Y83698D01*
X-52638Y83167D01*
X-53481Y82628D01*
X-54318Y82080D01*
X-55150Y81523D01*
X-55976Y80958D01*
X-56796Y80385D01*
X-57610Y79804D01*
X-58418Y79214D01*
X-59221Y78616D01*
X-60017Y78009D01*
X-60807Y77395D01*
X-61591Y76773D01*
X-62368Y76143D01*
X-63139Y75505D01*
X-63903Y74859D01*
X-64661Y74206D01*
X-65412Y73544D01*
X-66157Y72875D01*
X-66894Y72199D01*
X-67624Y71515D01*
X-68348Y70824D01*
X-69065Y70126D01*
X-69774Y69420D01*
X-70476Y68707D01*
X-71171Y67987D01*
X-71859Y67260D01*
X-72539Y66526D01*
X-73211Y65785D01*
X-73876Y65037D01*
X-74534Y64283D01*
X-75183Y63521D01*
X-75825Y62754D01*
X-76459Y61980D01*
X-77086Y61199D01*
X-77704Y60412D01*
X-78314Y59619D01*
X-78916Y58820D01*
X-79510Y58015D01*
X-80096Y57203D01*
X-80673Y56386D01*
X-81242Y55563D01*
X-81803Y54734D01*
X-82355Y53900D01*
X-82899Y53059D01*
X-83434Y52214D01*
X-83960Y51363D01*
X-84478Y50507D01*
X-84987Y49645D01*
X-85488Y48779D01*
X-85979Y47907D01*
X-86462Y47030D01*
X-86936Y46149D01*
X-87400Y45263D01*
X-87856Y44372D01*
X-88302Y43476D01*
X-88740Y42576D01*
X-89168Y41672D01*
X-89587Y40763D01*
X-89997Y39850D01*
X-90398Y38933D01*
X-90789Y38012D01*
X-91171Y37087D01*
X-91543Y36158D01*
X-91906Y35226D01*
X-92259Y34290D01*
X-92603Y33350D01*
X-92937Y32407D01*
X-93262Y31460D01*
X-93577Y30510D01*
X-93882Y29557D01*
X-94178Y28601D01*
X-94464Y27642D01*
X-94740Y26680D01*
X-95006Y25716D01*
X-95263Y24749D01*
X-95510Y23779D01*
X-95746Y22807D01*
X-95973Y21832D01*
X-96190Y20855D01*
X-96397Y19876D01*
X-96595Y18895D01*
X-96782Y17912D01*
X-96959Y16927D01*
X-97126Y15941D01*
X-97283Y14952D01*
X-97430Y13962D01*
X-97567Y12971D01*
X-97694Y11979D01*
X-97810Y10985D01*
X-97917Y9990D01*
X-98013Y8994D01*
X-98100Y7997D01*
X-98176Y6999D01*
X-98242Y6001D01*
X-98298Y5002D01*
X-98344Y4002D01*
X-98379Y3002D01*
X-98405Y2001D01*
X-98420Y1001D01*
X-98425Y0D01*
X-98420Y-1000D01*
X-98405Y-2001D01*
X-98379Y-3001D01*
X-98344Y-4001D01*
X-98298Y-5001D01*
X-98242Y-6000D01*
X-98176Y-6999D01*
X-98100Y-7996D01*
X-98014Y-8993D01*
X-97917Y-9989D01*
X-97810Y-10984D01*
X-97694Y-11978D01*
X-97567Y-12971D01*
X-97430Y-13962D01*
X-97283Y-14952D01*
X-97126Y-15940D01*
X-96959Y-16927D01*
X-96782Y-17911D01*
X-96595Y-18894D01*
X-96398Y-19876D01*
X-96191Y-20855D01*
X-95973Y-21832D01*
X-95747Y-22806D01*
X-95510Y-23778D01*
X-95263Y-24748D01*
X-95007Y-25715D01*
X-94740Y-26680D01*
X-94464Y-27642D01*
X-94178Y-28601D01*
X-93883Y-29557D01*
X-93577Y-30510D01*
X-93262Y-31460D01*
X-92937Y-32406D01*
X-92603Y-33349D01*
X-92259Y-34289D01*
X-91906Y-35225D01*
X-91543Y-36158D01*
X-91171Y-37086D01*
X-90789Y-38012D01*
X-90398Y-38933D01*
X-89997Y-39850D01*
X-89588Y-40762D01*
X-89169Y-41671D01*
X-88740Y-42576D01*
X-88303Y-43476D01*
X-87856Y-44371D01*
X-87401Y-45262D01*
X-86936Y-46148D01*
X-86462Y-47030D01*
X-85980Y-47906D01*
X-85488Y-48778D01*
X-84988Y-49645D01*
X-84479Y-50506D01*
X-83961Y-51362D01*
X-83434Y-52213D01*
X-82899Y-53059D01*
X-82355Y-53899D01*
X-81803Y-54734D01*
X-81243Y-55562D01*
X-80673Y-56385D01*
X-80096Y-57203D01*
X-79510Y-58014D01*
X-78916Y-58819D01*
X-78314Y-59619D01*
X-77704Y-60412D01*
X-77086Y-61199D01*
X-76460Y-61979D01*
X-75826Y-62753D01*
X-75184Y-63521D01*
X-74534Y-64282D01*
X-73877Y-65036D01*
X-73212Y-65784D01*
X-72539Y-66525D01*
X-71859Y-67259D01*
X-71171Y-67986D01*
X-70477Y-68706D01*
X-69775Y-69419D01*
X-69065Y-70125D01*
X-68349Y-70824D01*
X-67625Y-71515D01*
X-66894Y-72199D01*
X-66157Y-72875D01*
X-65413Y-73544D01*
X-64662Y-74205D01*
X-63904Y-74859D01*
X-63139Y-75504D01*
X-62369Y-76143D01*
X-61591Y-76773D01*
X-60808Y-77395D01*
X-60018Y-78009D01*
X-59221Y-78615D01*
X-58419Y-79213D01*
X-57611Y-79803D01*
X-56796Y-80385D01*
X-55976Y-80958D01*
X-55150Y-81523D01*
X-54318Y-82079D01*
X-53481Y-82627D01*
X-52638Y-83167D01*
X-51790Y-83698D01*
X-50937Y-84220D01*
X-50078Y-84733D01*
X-49214Y-85238D01*
X-48344Y-85734D01*
X-47470Y-86221D01*
X-46591Y-86699D01*
X-45707Y-87169D01*
X-44819Y-87629D01*
X-43926Y-88080D01*
X-43028Y-88522D01*
X-42126Y-88955D01*
X-41219Y-89378D01*
X-40308Y-89793D01*
X-39393Y-90198D01*
X-38474Y-90594D01*
X-37551Y-90980D01*
X-36624Y-91357D01*
X-35694Y-91725D01*
X-34759Y-92083D01*
X-33821Y-92432D01*
X-32880Y-92771D01*
X-31935Y-93100D01*
X-30987Y-93420D01*
X-30035Y-93730D01*
X-29081Y-94031D01*
X-28123Y-94322D01*
X-27163Y-94603D01*
X-26200Y-94874D01*
X-25234Y-95135D01*
X-24265Y-95387D01*
X-23294Y-95629D01*
X-22321Y-95861D01*
X-21345Y-96083D01*
X-20367Y-96295D01*
X-19387Y-96497D01*
X-18405Y-96689D01*
X-17421Y-96871D01*
X-16435Y-97043D01*
X-15448Y-97205D01*
X-14459Y-97357D01*
X-13468Y-97499D01*
X-12476Y-97631D01*
X-11483Y-97753D01*
X-10489Y-97865D01*
X-9493Y-97966D01*
X-8497Y-98058D01*
X-7499Y-98139D01*
X-6501Y-98210D01*
X-5502Y-98271D01*
X-4503Y-98322D01*
X-3503Y-98363D01*
X-2503Y-98393D01*
X-1503Y-98414D01*
X-502Y-98424D01*
X499Y-98424D01*
X1499Y-98414D01*
X2500Y-98393D01*
X3500Y-98363D01*
X4500Y-98322D01*
X5499Y-98272D01*
X6498Y-98211D01*
X7496Y-98139D01*
X8494Y-98058D01*
X9490Y-97967D01*
X10486Y-97865D01*
X11480Y-97753D01*
X12473Y-97632D01*
X13465Y-97500D01*
X14456Y-97358D01*
X15445Y-97206D01*
X16432Y-97044D01*
X17418Y-96872D01*
X18402Y-96690D01*
X19384Y-96498D01*
X20364Y-96295D01*
X21342Y-96083D01*
X22318Y-95862D01*
X23291Y-95630D01*
X24262Y-95388D01*
X25231Y-95136D01*
X26197Y-94875D01*
X27160Y-94604D01*
X28120Y-94323D01*
X29078Y-94032D01*
X30032Y-93731D01*
X30984Y-93421D01*
X31932Y-93101D01*
X32877Y-92772D01*
X33818Y-92433D01*
X34756Y-92084D01*
X35691Y-91726D01*
X36621Y-91359D01*
X37548Y-90982D01*
X38471Y-90595D01*
X39391Y-90199D01*
X40306Y-89794D01*
X41216Y-89380D01*
X42123Y-88956D01*
X43025Y-88523D01*
X43923Y-88081D01*
X44816Y-87630D01*
X45705Y-87170D01*
X46589Y-86701D01*
X47468Y-86223D01*
X48342Y-85736D01*
X49211Y-85240D01*
X50075Y-84735D01*
X50934Y-84222D01*
X51788Y-83699D01*
X52636Y-83169D01*
X53478Y-82629D01*
X54316Y-82081D01*
X55147Y-81525D01*
X55974Y-80960D01*
X56794Y-80387D01*
X57608Y-79805D01*
X58416Y-79215D01*
X59219Y-78617D01*
X60015Y-78011D01*
X60805Y-77397D01*
X61589Y-76775D01*
X62366Y-76144D01*
X63137Y-75507D01*
X63901Y-74861D01*
X64659Y-74207D01*
X65410Y-73546D01*
X66155Y-72877D01*
X66892Y-72201D01*
X67623Y-71517D01*
X68346Y-70826D01*
X69063Y-70127D01*
X69772Y-69422D01*
X70474Y-68709D01*
X71169Y-67989D01*
X71857Y-67261D01*
X72537Y-66527D01*
X73210Y-65787D01*
X73875Y-65039D01*
X74532Y-64284D01*
X75182Y-63523D01*
X75824Y-62756D01*
X76458Y-61982D01*
X77084Y-61201D01*
X77702Y-60414D01*
X78312Y-59621D01*
X78914Y-58822D01*
X79509Y-58017D01*
X80094Y-57205D01*
X80672Y-56388D01*
X81241Y-55565D01*
X81801Y-54736D01*
X82354Y-53902D01*
X82898Y-53061D01*
X83433Y-52216D01*
X83959Y-51365D01*
X84477Y-50509D01*
X84986Y-49647D01*
X85487Y-48781D01*
X85978Y-47909D01*
X86461Y-47032D01*
X86935Y-46151D01*
X87399Y-45265D01*
X87855Y-44374D01*
X88301Y-43479D01*
X88739Y-42579D01*
X89167Y-41674D01*
X89586Y-40765D01*
X89996Y-39852D01*
X90397Y-38936D01*
X90788Y-38014D01*
X91170Y-37089D01*
X91542Y-36161D01*
X91905Y-35228D01*
X92258Y-34292D01*
X92602Y-33352D01*
X92936Y-32409D01*
X93261Y-31462D01*
X93576Y-30513D01*
X93881Y-29560D01*
X94177Y-28604D01*
X94463Y-27645D01*
X94739Y-26683D01*
X95006Y-25718D01*
X95262Y-24751D01*
X95509Y-23781D01*
X95746Y-22809D01*
X95973Y-21835D01*
X96190Y-20858D01*
X96397Y-19879D01*
X96594Y-18898D01*
X96781Y-17915D01*
X96958Y-16930D01*
X97125Y-15943D01*
X97282Y-14955D01*
X97429Y-13965D01*
X97566Y-12974D01*
X97693Y-11981D01*
X97810Y-10987D01*
X97917Y-9992D01*
X98013Y-8996D01*
X98100Y-7999D01*
X98176Y-7002D01*
X98242Y-6003D01*
X98298Y-5004D01*
X98344Y-4004D01*
X98379Y-3004D01*
X98405Y-2004D01*
X98420Y-1003D01*
X98425Y-3D01*
Y0D01*
M02*
