G04 Layer_Physical_Order=1*
G04 Layer_Color=255*
%FSLAX25Y25*%
%MOIN*%
G70*
G01*
G75*
%ADD10R,0.03543X0.06693*%
%ADD11R,0.06693X0.03543*%
%ADD12R,0.02559X0.04724*%
%ADD13R,0.21654X0.07874*%
%ADD14R,0.05000X0.02756*%
%ADD15R,0.02756X0.05000*%
%ADD16R,0.37992X0.30709*%
%ADD17R,0.04331X0.17520*%
%ADD18R,0.07874X0.07874*%
%ADD19C,0.01968*%
%ADD20C,0.03937*%
%ADD21C,0.01181*%
%ADD22C,0.03150*%
%ADD23C,0.15748*%
%ADD24C,0.07087*%
%ADD25R,0.07874X0.03937*%
%ADD26O,0.07874X0.03937*%
%ADD27R,0.03937X0.07874*%
%ADD28O,0.03937X0.07874*%
%ADD29C,0.06299*%
%ADD30C,0.05512*%
%ADD31C,0.05905*%
%ADD32R,0.05905X0.05905*%
%ADD33C,0.01968*%
G36*
X97546Y-90D02*
X95669Y-18110D01*
X86221Y-44488D01*
X69056Y-68692D01*
X52050Y-82297D01*
X36354Y-91280D01*
X35333Y-90688D01*
Y-59549D01*
X61037Y-33845D01*
Y-32802D01*
X61062Y-32677D01*
Y-11398D01*
X78969Y552D01*
X81639D01*
X81771Y402D01*
X82143Y-593D01*
X82102Y-700D01*
X81894Y-971D01*
X81577Y-1737D01*
X81547Y-1969D01*
X91682D01*
X91651Y-1737D01*
X91334Y-971D01*
X91126Y-700D01*
X90949Y-234D01*
X91541Y787D01*
X96756D01*
X97546Y-90D01*
D02*
G37*
G36*
X-41634Y39784D02*
Y11024D01*
X-40380D01*
Y-25538D01*
X-47775Y-32933D01*
X-48248Y-33550D01*
X-48546Y-34269D01*
X-48647Y-35039D01*
Y-51968D01*
X-68859Y-51968D01*
Y-51181D01*
X-69012Y-50413D01*
X-69447Y-49762D01*
X-80473Y-38736D01*
Y-34055D01*
X-78347D01*
Y-33503D01*
X-74016D01*
X-73248Y-33350D01*
X-72597Y-32915D01*
X-72162Y-32264D01*
X-72009Y-31496D01*
X-72162Y-30728D01*
X-72597Y-30077D01*
X-73248Y-29642D01*
X-74016Y-29489D01*
X-78347D01*
Y-28543D01*
X-80709D01*
X-80823Y-27972D01*
X-81258Y-27321D01*
X-84850Y-23729D01*
X-84398Y-22638D01*
X-78347D01*
Y-17126D01*
X-80670D01*
Y-15354D01*
X-80823Y-14586D01*
X-81258Y-13935D01*
X-83472Y-11721D01*
X-83020Y-10630D01*
X-81693D01*
Y-4724D01*
X-80577Y-4566D01*
X-79768D01*
X-77207Y-7128D01*
X-76556Y-7563D01*
X-75787Y-7716D01*
X-63386D01*
Y-8465D01*
X-54724D01*
Y-2953D01*
X-63386D01*
Y-3702D01*
X-74956D01*
X-77518Y-1140D01*
X-78169Y-705D01*
X-78937Y-552D01*
X-81639D01*
X-81771Y-402D01*
X-82143Y593D01*
X-82102Y700D01*
X-81894Y971D01*
X-81577Y1737D01*
X-81547Y1969D01*
X-86614D01*
Y3150D01*
X-81547D01*
X-81577Y3381D01*
X-81894Y4147D01*
X-82102Y4418D01*
X-82540Y5571D01*
X-82066Y6188D01*
X-81769Y6906D01*
X-81667Y7677D01*
X-81769Y8448D01*
X-82066Y9166D01*
X-82540Y9783D01*
X-82773Y9962D01*
X-83048Y11357D01*
X-81258Y13148D01*
X-80823Y13799D01*
X-80670Y14567D01*
Y17126D01*
X-78347D01*
Y22047D01*
X-62264Y38130D01*
X-61062Y36928D01*
Y8465D01*
X-63386D01*
Y2953D01*
X-54724D01*
Y8465D01*
X-57048D01*
Y37759D01*
X-57201Y38527D01*
X-57636Y39178D01*
X-58452Y39994D01*
X-58029Y41241D01*
X-57976Y41248D01*
X-56970Y41665D01*
X-56882Y41732D01*
X-43582D01*
X-41634Y39784D01*
D02*
G37*
G36*
X56107Y42327D02*
X56970Y41665D01*
X57976Y41248D01*
X59055Y41106D01*
X60134Y41248D01*
X61140Y41665D01*
X61773Y42150D01*
X62573Y41906D01*
X62954Y41625D01*
Y22879D01*
X52033Y11958D01*
X51526Y11882D01*
X50456Y12051D01*
X45669Y16838D01*
X45669Y31102D01*
X39705D01*
Y31102D01*
X32736D01*
Y31102D01*
X31555Y31102D01*
X24803D01*
Y43085D01*
X55526D01*
X56107Y42327D01*
D02*
G37*
G36*
X3150Y81547D02*
X3381Y81577D01*
X4147Y81894D01*
X4418Y82102D01*
X5571Y82540D01*
X6188Y82066D01*
X6906Y81769D01*
X7677Y81667D01*
X8448Y81769D01*
X9166Y82066D01*
X9783Y82540D01*
X10256Y83157D01*
X10289Y83234D01*
X11645Y83548D01*
X13780Y81414D01*
Y76772D01*
X36804Y69291D01*
X50880D01*
X51004Y69209D01*
X51772Y69056D01*
X52147D01*
Y61277D01*
X52122Y61024D01*
X52147Y60770D01*
Y52794D01*
X14808D01*
X8465Y59138D01*
Y63386D01*
X3188D01*
X-1034Y68621D01*
X-705Y69114D01*
X-552Y69882D01*
Y81639D01*
X-402Y81771D01*
X593Y82143D01*
X700Y82102D01*
X971Y81894D01*
X1737Y81577D01*
X1969Y81547D01*
Y86614D01*
X3150D01*
Y81547D01*
D02*
G37*
%LPC*%
G36*
X63345Y-45866D02*
X59646D01*
Y-49566D01*
X60186Y-49495D01*
X61239Y-49058D01*
X62144Y-48364D01*
X62838Y-47460D01*
X63274Y-46406D01*
X63345Y-45866D01*
D02*
G37*
G36*
X58465D02*
X54765D01*
X54836Y-46406D01*
X55272Y-47460D01*
X55966Y-48364D01*
X56871Y-49058D01*
X57925Y-49495D01*
X58465Y-49566D01*
Y-45866D01*
D02*
G37*
G36*
Y-40985D02*
X57925Y-41056D01*
X56871Y-41493D01*
X55966Y-42187D01*
X55272Y-43092D01*
X54836Y-44145D01*
X54765Y-44685D01*
X58465D01*
Y-40985D01*
D02*
G37*
G36*
X59646D02*
Y-44685D01*
X63345D01*
X63274Y-44145D01*
X62838Y-43092D01*
X62144Y-42187D01*
X61239Y-41493D01*
X60186Y-41056D01*
X59646Y-40985D01*
D02*
G37*
G36*
X43898Y-74053D02*
Y-78150D01*
X47995D01*
X47910Y-77507D01*
X47434Y-76358D01*
X46677Y-75371D01*
X45690Y-74613D01*
X44540Y-74137D01*
X43898Y-74053D01*
D02*
G37*
G36*
X61024Y-52122D02*
X59287Y-52293D01*
X57617Y-52800D01*
X56078Y-53623D01*
X54730Y-54730D01*
X53623Y-56078D01*
X52800Y-57617D01*
X52293Y-59287D01*
X52122Y-61024D01*
X52293Y-62760D01*
X52800Y-64430D01*
X53623Y-65969D01*
X54730Y-67318D01*
X56078Y-68425D01*
X57617Y-69247D01*
X59287Y-69754D01*
X61024Y-69925D01*
X62760Y-69754D01*
X64430Y-69247D01*
X65969Y-68425D01*
X67318Y-67318D01*
X68425Y-65969D01*
X69247Y-64430D01*
X69754Y-62760D01*
X69925Y-61024D01*
X69754Y-59287D01*
X69247Y-57617D01*
X68425Y-56078D01*
X67318Y-54730D01*
X65969Y-53623D01*
X64430Y-52800D01*
X62760Y-52293D01*
X61024Y-52122D01*
D02*
G37*
G36*
X42717Y-74053D02*
X42074Y-74137D01*
X40925Y-74613D01*
X39938Y-75371D01*
X39180Y-76358D01*
X38704Y-77507D01*
X38620Y-78150D01*
X42717D01*
Y-74053D01*
D02*
G37*
G36*
Y-79331D02*
X38620D01*
X38704Y-79974D01*
X39180Y-81123D01*
X39938Y-82110D01*
X40925Y-82867D01*
X42074Y-83343D01*
X42717Y-83428D01*
Y-79331D01*
D02*
G37*
G36*
X47995D02*
X43898D01*
Y-83428D01*
X44540Y-83343D01*
X45690Y-82867D01*
X46677Y-82110D01*
X47434Y-81123D01*
X47910Y-79974D01*
X47995Y-79331D01*
D02*
G37*
G36*
X45472Y-54765D02*
Y-58465D01*
X49172D01*
X49101Y-57925D01*
X48665Y-56871D01*
X47971Y-55966D01*
X47066Y-55272D01*
X46012Y-54836D01*
X45472Y-54765D01*
D02*
G37*
G36*
X44291D02*
X43751Y-54836D01*
X42698Y-55272D01*
X41793Y-55966D01*
X41099Y-56871D01*
X40663Y-57925D01*
X40592Y-58465D01*
X44291D01*
Y-54765D01*
D02*
G37*
G36*
X49172Y-59646D02*
X45472D01*
Y-63345D01*
X46012Y-63274D01*
X47066Y-62838D01*
X47971Y-62144D01*
X48665Y-61239D01*
X49101Y-60186D01*
X49172Y-59646D01*
D02*
G37*
G36*
X44291D02*
X40592D01*
X40663Y-60186D01*
X41099Y-61239D01*
X41793Y-62144D01*
X42698Y-62838D01*
X43751Y-63274D01*
X44291Y-63345D01*
Y-59646D01*
D02*
G37*
G36*
X87008Y-28543D02*
X78347D01*
Y-29292D01*
X75394D01*
X74626Y-29445D01*
X73975Y-29880D01*
X73539Y-30531D01*
X73387Y-31299D01*
X73539Y-32067D01*
X73975Y-32718D01*
X74626Y-33154D01*
X75394Y-33306D01*
X78347D01*
Y-34055D01*
X87008D01*
Y-28543D01*
D02*
G37*
G36*
X91682Y-3150D02*
X81547D01*
X81577Y-3381D01*
X81894Y-4147D01*
X82102Y-4418D01*
X82540Y-5571D01*
X82066Y-6188D01*
X81769Y-6906D01*
X81667Y-7677D01*
X81769Y-8448D01*
X82066Y-9166D01*
X82540Y-9783D01*
X82996Y-10133D01*
X83177Y-10610D01*
X83233Y-11567D01*
X81258Y-13541D01*
X80823Y-14193D01*
X80670Y-14961D01*
Y-17126D01*
X78347D01*
Y-22638D01*
X87008D01*
Y-17126D01*
X84684D01*
Y-15792D01*
X88033Y-12443D01*
X88468Y-11792D01*
X88621Y-11024D01*
Y-10650D01*
X89354Y-10554D01*
X90072Y-10256D01*
X90689Y-9783D01*
X91162Y-9166D01*
X91459Y-8448D01*
X91561Y-7677D01*
X91459Y-6906D01*
X91162Y-6188D01*
X90689Y-5571D01*
X91126Y-4418D01*
X91334Y-4147D01*
X91651Y-3381D01*
X91682Y-3150D01*
D02*
G37*
G36*
X-54765Y-45866D02*
X-58465D01*
Y-49566D01*
X-57925Y-49495D01*
X-56871Y-49058D01*
X-55966Y-48364D01*
X-55272Y-47460D01*
X-54836Y-46406D01*
X-54765Y-45866D01*
D02*
G37*
G36*
X-59646Y-40985D02*
X-60186Y-41056D01*
X-61239Y-41493D01*
X-62144Y-42187D01*
X-62838Y-43092D01*
X-63274Y-44145D01*
X-63345Y-44685D01*
X-59646D01*
Y-40985D01*
D02*
G37*
G36*
X-58465D02*
Y-44685D01*
X-54765D01*
X-54836Y-44145D01*
X-55272Y-43092D01*
X-55966Y-42187D01*
X-56871Y-41493D01*
X-57925Y-41056D01*
X-58465Y-40985D01*
D02*
G37*
G36*
X-59646Y-45866D02*
X-63345D01*
X-63274Y-46406D01*
X-62838Y-47460D01*
X-62144Y-48364D01*
X-61239Y-49058D01*
X-60186Y-49495D01*
X-59646Y-49566D01*
Y-45866D01*
D02*
G37*
G36*
X-48228Y24092D02*
Y20591D01*
X-44727D01*
X-44791Y21079D01*
X-45208Y22085D01*
X-45871Y22948D01*
X-46734Y23611D01*
X-47740Y24027D01*
X-48228Y24092D01*
D02*
G37*
G36*
X-48819Y-6029D02*
X-49847Y-6164D01*
X-50804Y-6561D01*
X-51627Y-7192D01*
X-52258Y-8015D01*
X-52655Y-8972D01*
X-52790Y-10000D01*
X-52655Y-11028D01*
X-52258Y-11986D01*
X-51627Y-12808D01*
X-50804Y-13439D01*
X-49847Y-13836D01*
X-48819Y-13971D01*
X-47791Y-13836D01*
X-46833Y-13439D01*
X-46011Y-12808D01*
X-45380Y-11986D01*
X-44983Y-11028D01*
X-44848Y-10000D01*
X-44983Y-8972D01*
X-45380Y-8015D01*
X-46011Y-7192D01*
X-46833Y-6561D01*
X-47791Y-6164D01*
X-48819Y-6029D01*
D02*
G37*
G36*
Y3971D02*
X-49847Y3836D01*
X-50804Y3439D01*
X-51627Y2808D01*
X-52258Y1986D01*
X-52655Y1028D01*
X-52790Y0D01*
X-52655Y-1028D01*
X-52258Y-1986D01*
X-51627Y-2808D01*
X-50804Y-3439D01*
X-49847Y-3836D01*
X-48819Y-3971D01*
X-47791Y-3836D01*
X-46833Y-3439D01*
X-46011Y-2808D01*
X-45380Y-1986D01*
X-44983Y-1028D01*
X-44848Y0D01*
X-44983Y1028D01*
X-45380Y1986D01*
X-46011Y2808D01*
X-46833Y3439D01*
X-47791Y3836D01*
X-48819Y3971D01*
D02*
G37*
G36*
X-44882Y-16063D02*
X-52756D01*
Y-23937D01*
X-44882D01*
Y-16063D01*
D02*
G37*
G36*
X-44727Y19409D02*
X-48228D01*
Y15908D01*
X-47740Y15973D01*
X-46734Y16389D01*
X-45871Y17052D01*
X-45208Y17915D01*
X-44791Y18921D01*
X-44727Y19409D01*
D02*
G37*
G36*
X-49409Y24092D02*
X-49898Y24027D01*
X-50904Y23611D01*
X-51767Y22948D01*
X-52430Y22085D01*
X-52846Y21079D01*
X-52911Y20591D01*
X-49409D01*
Y24092D01*
D02*
G37*
G36*
X-48819Y13971D02*
X-49847Y13836D01*
X-50804Y13439D01*
X-51627Y12808D01*
X-52258Y11986D01*
X-52655Y11028D01*
X-52790Y10000D01*
X-52655Y8972D01*
X-52258Y8015D01*
X-51627Y7192D01*
X-50804Y6561D01*
X-49847Y6164D01*
X-48819Y6029D01*
X-47791Y6164D01*
X-46833Y6561D01*
X-46011Y7192D01*
X-45380Y8015D01*
X-44983Y8972D01*
X-44848Y10000D01*
X-44983Y11028D01*
X-45380Y11986D01*
X-46011Y12808D01*
X-46833Y13439D01*
X-47791Y13836D01*
X-48819Y13971D01*
D02*
G37*
G36*
X-49409Y19409D02*
X-52911D01*
X-52846Y18921D01*
X-52430Y17915D01*
X-51767Y17052D01*
X-50904Y16389D01*
X-49898Y15973D01*
X-49409Y15908D01*
Y19409D01*
D02*
G37*
G36*
X35630Y39173D02*
X32539D01*
Y37205D01*
X35630D01*
Y39173D01*
D02*
G37*
G36*
X39902D02*
X36811D01*
Y37205D01*
X39902D01*
Y39173D01*
D02*
G37*
G36*
X35630Y36024D02*
X32539D01*
Y34055D01*
X35630D01*
Y36024D01*
D02*
G37*
G36*
X39902D02*
X36811D01*
Y34055D01*
X39902D01*
Y36024D01*
D02*
G37*
G36*
X44685Y63345D02*
X44145Y63274D01*
X43092Y62838D01*
X42187Y62144D01*
X41493Y61239D01*
X41056Y60186D01*
X40985Y59646D01*
X44685D01*
Y63345D01*
D02*
G37*
G36*
X45866D02*
Y59646D01*
X49566D01*
X49495Y60186D01*
X49058Y61239D01*
X48364Y62144D01*
X47460Y62838D01*
X46406Y63274D01*
X45866Y63345D01*
D02*
G37*
G36*
X44685Y58465D02*
X40985D01*
X41056Y57925D01*
X41493Y56871D01*
X42187Y55966D01*
X43092Y55272D01*
X44145Y54836D01*
X44685Y54765D01*
Y58465D01*
D02*
G37*
G36*
X49566D02*
X45866D01*
Y54765D01*
X46406Y54836D01*
X47460Y55272D01*
X48364Y55966D01*
X49058Y56871D01*
X49495Y57925D01*
X49566Y58465D01*
D02*
G37*
%LPD*%
D10*
X-29724Y-84252D02*
D03*
X-18307D02*
D03*
X18701Y-82677D02*
D03*
X30118D02*
D03*
X5709Y-59055D02*
D03*
X-5709D02*
D03*
X-31299Y82677D02*
D03*
X-19882D02*
D03*
X19882D02*
D03*
X31299D02*
D03*
X5709Y59055D02*
D03*
X-5709D02*
D03*
D11*
X82677Y19882D02*
D03*
Y31299D02*
D03*
Y-31299D02*
D03*
Y-19882D02*
D03*
X59055Y5709D02*
D03*
Y-5709D02*
D03*
X-82677Y-19882D02*
D03*
Y-31299D02*
D03*
Y31299D02*
D03*
Y19882D02*
D03*
X-59055Y-5709D02*
D03*
Y5709D02*
D03*
D12*
X35039Y787D02*
D03*
X42520D02*
D03*
X38780Y10630D02*
D03*
D13*
X591Y-34646D02*
D03*
X37992D02*
D03*
D14*
X18504Y-9055D02*
D03*
Y-16929D02*
D03*
Y9055D02*
D03*
Y1181D02*
D03*
X36220Y36614D02*
D03*
Y28740D02*
D03*
D15*
X34252Y-15354D02*
D03*
X42126D02*
D03*
D16*
X-21654Y27362D02*
D03*
D17*
X-11654Y-15748D02*
D03*
X-31653D02*
D03*
D18*
X-16535Y-34646D02*
D03*
X-32283D02*
D03*
D19*
X-16535Y-39764D02*
Y-35039D01*
Y-39764D02*
X-14173Y-42126D01*
X86614Y7677D02*
Y11417D01*
X82677Y15354D02*
X86614Y11417D01*
X82677Y15354D02*
Y19882D01*
X86614Y-11024D02*
Y-7677D01*
X82677Y-14961D02*
X86614Y-11024D01*
X82677Y-19882D02*
Y-14961D01*
X59055Y5709D02*
X75394D01*
X78543Y2559D01*
X86614D01*
X-86614Y-2559D02*
X-78937D01*
X-86614Y7677D02*
Y10630D01*
X-82677Y-19882D02*
Y-15354D01*
X-86614Y-11417D02*
X-82677Y-15354D01*
X-86614Y-11417D02*
Y-7677D01*
X-5709Y59055D02*
Y66732D01*
X-2559Y69882D01*
Y86614D01*
X-19882Y82677D02*
X-15354D01*
X-11417Y86614D01*
X-7677D01*
X7677D02*
X11417D01*
X15354Y82677D01*
X19882D01*
X-2559Y-86614D02*
Y-78150D01*
X-5709Y-75000D02*
X-2559Y-78150D01*
X-5709Y-75000D02*
Y-59055D01*
X15354Y-82677D02*
X18701D01*
X11417Y-86614D02*
X15354Y-82677D01*
X7677Y-86614D02*
X11417D01*
X-11417D02*
X-7677D01*
X-13780Y-84252D02*
X-11417Y-86614D01*
X-18307Y-84252D02*
X-13780D01*
X5709Y59055D02*
X13976Y50787D01*
X62205D01*
X64961Y48031D01*
X52362Y984D02*
X59055Y-5709D01*
X-59055Y5709D02*
Y37759D01*
X-64370Y43074D02*
X-59055Y37759D01*
X-64370Y43074D02*
Y47835D01*
X-45706Y66142D02*
X-20976D01*
X-8377Y53543D01*
X-3040D01*
X2472Y59055D01*
X5709D01*
X-29921Y-84449D02*
X-29724Y-84252D01*
X-50984Y-79136D02*
X-45672Y-84449D01*
X-29921D01*
X-64370Y47835D02*
X-61221Y50984D01*
X-56865D01*
X-50984Y56865D01*
Y60863D01*
X-45706Y66142D01*
X-42913Y71063D02*
X-31299Y82677D01*
X-65182Y71063D02*
X-42913D01*
X-71063Y65182D02*
X-65182Y71063D01*
X-71063Y51378D02*
Y65182D01*
X-86614Y10630D02*
X-82677Y14567D01*
Y19882D01*
X-78937Y-2559D02*
X-75787Y-5709D01*
X-59055D01*
X-89764Y16142D02*
Y32677D01*
X-82677Y-31299D02*
Y-28740D01*
X-93701Y-17717D02*
X-82677Y-28740D01*
X-93701Y-17717D02*
Y12205D01*
X-89764Y16142D01*
Y32677D02*
X-71063Y51378D01*
X-31299Y82677D02*
X-28062D01*
X-18023Y92716D01*
X16339D01*
X18898Y90158D01*
X32677D01*
X51772Y71063D01*
X65182D01*
X71063Y65182D01*
Y53347D02*
Y65182D01*
Y53347D02*
X82677Y41732D01*
Y31299D02*
Y41732D01*
X-82677Y31299D02*
X-75394D01*
X30118Y-82677D02*
Y-75787D01*
X75394Y-31299D02*
X82677D01*
X31102Y82480D02*
X31299Y82677D01*
X31102Y74803D02*
Y82480D01*
X-82480Y-31496D02*
X-74016D01*
X-82677Y-31299D02*
X-82480Y-31496D01*
X53740Y-11024D02*
X59055Y-5709D01*
X5709Y-59055D02*
X32677D01*
X59055Y-32677D01*
Y-5709D01*
X53740Y-15945D02*
Y-11024D01*
X44094Y-24409D02*
X45276D01*
X53740Y-15945D01*
X-14173Y-42126D02*
X-5118D01*
X-55509Y-79136D02*
X-50984D01*
X-70866Y-65101D02*
X-65101Y-70866D01*
X-63779D01*
X-55509Y-79136D01*
X-82480Y-39567D02*
Y-31496D01*
Y-39567D02*
X-70866Y-51181D01*
Y-65101D02*
Y-51181D01*
X36220Y36614D02*
X36220Y36614D01*
X52362Y984D02*
Y9449D01*
X64961Y22047D01*
Y48031D01*
D20*
X-37402Y-26772D02*
Y14567D01*
X-45669Y-35039D02*
X-37402Y-26772D01*
X-45669Y-59055D02*
Y-35039D01*
X-32185Y-67618D02*
Y-35039D01*
X-43307Y-78740D02*
X-32185Y-67618D01*
X-11654Y-23858D02*
Y-15748D01*
X-42913Y45276D02*
X-25000Y27362D01*
X58268Y46063D02*
X59055Y45276D01*
X-25000Y27362D02*
X-24606D01*
X-21654D01*
X-17913D01*
X787Y46063D01*
X58268D01*
X-14173Y-26378D02*
X-11654Y-23858D01*
X-23524Y-26378D02*
X-14173D01*
X-37402Y14567D02*
X-24606Y27362D01*
X-32185Y-35039D02*
X-23524Y-26378D01*
D21*
X23622Y-34646D02*
X37992D01*
X591D02*
X14961D01*
X14173Y-7480D02*
X15748Y-9055D01*
X18504D01*
X-10472Y-16929D02*
X18504D01*
X-11654Y-15748D02*
X-10472Y-16929D01*
X21850Y-2953D02*
X34252Y-15354D01*
X14173Y0D02*
X15354Y1181D01*
X18504D01*
X-31653Y-8425D02*
X-26378Y-3150D01*
X14173D01*
X-31653Y-15748D02*
Y-8425D01*
X14173Y-7480D02*
Y-3150D01*
Y0D01*
X36220Y28740D02*
X36344Y28616D01*
X29134Y28740D02*
X36220D01*
X18504Y9055D02*
X33268D01*
X34843Y10630D01*
X38780D01*
X35039Y-3150D02*
Y787D01*
Y-3150D02*
X42126Y-10236D01*
Y-15354D02*
Y-10236D01*
X11024Y36220D02*
X18504Y28740D01*
X29134D01*
X17618Y15650D02*
X39629D01*
X45669Y9609D01*
Y-9843D02*
Y9609D01*
Y-9843D02*
X48425Y-12598D01*
X50787D01*
X49606Y-8268D02*
X50787Y-9449D01*
X49606Y-8268D02*
Y10630D01*
X-30315Y2756D02*
X4724D01*
X17618Y15650D01*
X40551Y19685D02*
X49606Y10630D01*
X-26772Y7480D02*
X1575D01*
X13780Y19685D01*
X40551D01*
X18701Y-2953D02*
X21850D01*
X39469Y787D02*
X42520D01*
D22*
X-42913Y45276D02*
Y56693D01*
X-45276Y59055D02*
X-42913Y56693D01*
X-59055Y45276D02*
X-42913D01*
D23*
X61024Y61024D02*
D03*
X-61024D02*
D03*
Y-61024D02*
D03*
X61024D02*
D03*
D24*
X43307Y-78740D02*
D03*
X-43307D02*
D03*
D25*
X-86614Y-7677D02*
D03*
X86614Y7677D02*
D03*
D26*
X-86614Y-2559D02*
D03*
Y2559D02*
D03*
Y7677D02*
D03*
X86614Y2559D02*
D03*
Y-2559D02*
D03*
Y-7677D02*
D03*
D27*
X-7677Y86614D02*
D03*
Y-86614D02*
D03*
D28*
X-2559Y86614D02*
D03*
X2559D02*
D03*
X7677D02*
D03*
X-2559Y-86614D02*
D03*
X2559D02*
D03*
X7677D02*
D03*
D29*
X45276Y59055D02*
D03*
X-45276D02*
D03*
X59055Y45276D02*
D03*
Y-45276D02*
D03*
X44882Y-59055D02*
D03*
X-45669D02*
D03*
X-59055Y45276D02*
D03*
Y-45276D02*
D03*
D30*
X20866Y36220D02*
D03*
X11024D02*
D03*
D31*
X-48819Y20000D02*
D03*
Y10000D02*
D03*
Y0D02*
D03*
Y-10000D02*
D03*
D32*
Y-20000D02*
D03*
D33*
X23622Y-34646D02*
D03*
X14961D02*
D03*
X-75394Y31299D02*
D03*
X30118Y-75787D02*
D03*
X75394Y-31299D02*
D03*
X31102Y74803D02*
D03*
X-74016Y-31496D02*
D03*
X50787Y-12598D02*
D03*
Y-9449D02*
D03*
X44094Y-24409D02*
D03*
X-5118Y-42126D02*
D03*
X29134Y28740D02*
D03*
X-42795Y-23228D02*
D03*
X27559Y54331D02*
D03*
X22047D02*
D03*
X27559Y33071D02*
D03*
X30315Y40945D02*
D03*
X27559D02*
D03*
X33071D02*
D03*
X35827D02*
D03*
X30315Y54331D02*
D03*
X24803D02*
D03*
X-30315Y2756D02*
D03*
X-26772Y7480D02*
D03*
X18701Y-2953D02*
D03*
X49311Y15256D02*
D03*
X39469Y787D02*
D03*
M02*
