G04 Layer_Color=128*
%FSLAX44Y44*%
%MOMM*%
G71*
G01*
G75*
%ADD11R,1.2700X0.7000*%
%ADD14R,0.7000X1.2700*%
%ADD34C,2.0000*%
%ADD35R,1.1000X1.3000*%
%ADD36O,0.6000X1.7000*%
%ADD37O,1.7000X0.6000*%
%ADD38R,1.6000X2.1800*%
%ADD39R,1.7000X1.8000*%
D11*
X135000Y-70000D02*
D03*
Y-90000D02*
D03*
D14*
X28000Y56000D02*
D03*
X8000D02*
D03*
X-93000Y-49000D02*
D03*
X-73000D02*
D03*
X104000Y56000D02*
D03*
X84000D02*
D03*
X22000Y-88000D02*
D03*
X2000D02*
D03*
X66000Y56000D02*
D03*
X46000D02*
D03*
X76000Y-88000D02*
D03*
X96000D02*
D03*
X-8000Y117000D02*
D03*
X12000D02*
D03*
D34*
X-39001Y41000D02*
D03*
Y65000D02*
D03*
Y17000D02*
D03*
Y-7000D02*
D03*
Y-31000D02*
D03*
X134000Y75000D02*
D03*
D35*
X-94500Y-18000D02*
D03*
X-71500D02*
D03*
D36*
X101000Y-55000D02*
D03*
X93000D02*
D03*
X85000D02*
D03*
X77000D02*
D03*
X69000D02*
D03*
X61000D02*
D03*
X53000D02*
D03*
X45000D02*
D03*
Y32000D02*
D03*
X53000D02*
D03*
X61000D02*
D03*
X69000D02*
D03*
X77000D02*
D03*
X85000D02*
D03*
X93000D02*
D03*
X101000D02*
D03*
D37*
X29500Y-39500D02*
D03*
Y-31500D02*
D03*
Y-23500D02*
D03*
Y-15500D02*
D03*
Y-7500D02*
D03*
Y500D02*
D03*
Y8500D02*
D03*
Y16500D02*
D03*
X116500D02*
D03*
Y8500D02*
D03*
Y500D02*
D03*
Y-7500D02*
D03*
Y-15500D02*
D03*
Y-23500D02*
D03*
Y-31500D02*
D03*
Y-39500D02*
D03*
D38*
X176000Y46000D02*
D03*
Y-46000D02*
D03*
D39*
X-15250Y-150000D02*
D03*
X15250D02*
D03*
M02*
