G04 Layer_Color=65535*
%FSLAX25Y25*%
%MOIN*%
G70*
G01*
G75*
%ADD40C,0.00984*%
%ADD41C,0.00787*%
%ADD42C,0.00394*%
%ADD43C,0.00591*%
D40*
X32087Y787D02*
X31348Y1214D01*
Y361D01*
X32087Y787D01*
X-35492Y-15748D02*
X-36230Y-15322D01*
Y-16174D01*
X-35492Y-15748D01*
X-12303Y-41142D02*
X-13041Y-40716D01*
Y-41568D01*
X-12303Y-41142D01*
D41*
X-91896Y10564D02*
X-92774Y10077D01*
X-93608Y9518D01*
X-94390Y8890D01*
X-95117Y8197D01*
X-95783Y7446D01*
X-96382Y6640D01*
X-96910Y5787D01*
X-97364Y4892D01*
X-97741Y3961D01*
X-98037Y3002D01*
X-98251Y2021D01*
X-98381Y1026D01*
X-98425Y23D01*
X-98384Y-980D01*
X-98259Y-1976D01*
X-98049Y-2957D01*
X-97757Y-3918D01*
X-97384Y-4849D01*
X-96933Y-5746D01*
X-96408Y-6602D01*
X-95812Y-7410D01*
X-95149Y-8164D01*
X-94425Y-8859D01*
X-93645Y-9490D01*
X-92814Y-10053D01*
X-91938Y-10543D01*
X-91023Y-10957D01*
X-90077Y-11292D01*
X-89106Y-11545D01*
X-88116Y-11715D01*
X-87116Y-11800D01*
X-86112D01*
X-85112Y-11715D01*
X-84123Y-11545D01*
X-83151Y-11292D01*
X-82205Y-10957D01*
X-81291Y-10543D01*
X-80415Y-10053D01*
X-79583Y-9490D01*
X-78803Y-8859D01*
X-78079Y-8164D01*
X-77416Y-7410D01*
X-76821Y-6602D01*
X-76295Y-5746D01*
X-75845Y-4849D01*
X-75472Y-3918D01*
X-75179Y-2957D01*
X-74970Y-1976D01*
X-74844Y-980D01*
X-74803Y23D01*
X-74848Y1026D01*
X-74977Y2021D01*
X-75191Y3002D01*
X-75487Y3961D01*
X-75864Y4892D01*
X-76318Y5787D01*
X-76847Y6640D01*
X-77446Y7446D01*
X-78111Y8197D01*
X-78838Y8890D01*
X-79621Y9518D01*
X-80454Y10077D01*
X-81332Y10564D01*
X10564Y91896D02*
X10077Y92774D01*
X9518Y93608D01*
X8890Y94390D01*
X8197Y95117D01*
X7446Y95783D01*
X6640Y96382D01*
X5787Y96910D01*
X4892Y97364D01*
X3961Y97741D01*
X3002Y98037D01*
X2021Y98251D01*
X1026Y98381D01*
X23Y98425D01*
X-980Y98384D01*
X-1976Y98259D01*
X-2957Y98049D01*
X-3918Y97757D01*
X-4849Y97384D01*
X-5746Y96933D01*
X-6602Y96408D01*
X-7410Y95812D01*
X-8164Y95149D01*
X-8859Y94425D01*
X-9490Y93645D01*
X-10053Y92814D01*
X-10543Y91938D01*
X-10957Y91023D01*
X-11292Y90077D01*
X-11545Y89106D01*
X-11715Y88116D01*
X-11800Y87116D01*
Y86112D01*
X-11715Y85112D01*
X-11545Y84123D01*
X-11292Y83151D01*
X-10957Y82205D01*
X-10543Y81291D01*
X-10053Y80415D01*
X-9490Y79583D01*
X-8859Y78803D01*
X-8164Y78079D01*
X-7410Y77416D01*
X-6602Y76820D01*
X-5746Y76295D01*
X-4849Y75845D01*
X-3918Y75472D01*
X-2957Y75179D01*
X-1976Y74970D01*
X-980Y74844D01*
X23Y74803D01*
X1026Y74848D01*
X2021Y74977D01*
X3002Y75191D01*
X3961Y75487D01*
X4892Y75864D01*
X5787Y76318D01*
X6640Y76847D01*
X7446Y77446D01*
X8197Y78111D01*
X8890Y78838D01*
X9518Y79621D01*
X10077Y80454D01*
X10564Y81332D01*
X91896Y-10564D02*
X92774Y-10077D01*
X93608Y-9518D01*
X94390Y-8890D01*
X95117Y-8197D01*
X95783Y-7446D01*
X96382Y-6640D01*
X96910Y-5787D01*
X97364Y-4892D01*
X97741Y-3961D01*
X98037Y-3002D01*
X98251Y-2021D01*
X98381Y-1026D01*
X98425Y-23D01*
X98384Y980D01*
X98259Y1976D01*
X98049Y2957D01*
X97757Y3918D01*
X97384Y4849D01*
X96933Y5746D01*
X96408Y6602D01*
X95812Y7410D01*
X95149Y8164D01*
X94425Y8859D01*
X93645Y9490D01*
X92814Y10053D01*
X91938Y10543D01*
X91023Y10957D01*
X90077Y11292D01*
X89106Y11545D01*
X88116Y11715D01*
X87116Y11800D01*
X86112D01*
X85112Y11715D01*
X84123Y11545D01*
X83152Y11292D01*
X82205Y10957D01*
X81291Y10543D01*
X80415Y10053D01*
X79584Y9490D01*
X78803Y8859D01*
X78079Y8164D01*
X77417Y7410D01*
X76821Y6602D01*
X76295Y5747D01*
X75845Y4850D01*
X75472Y3918D01*
X75179Y2957D01*
X74970Y1976D01*
X74844Y980D01*
X74803Y-23D01*
X74848Y-1026D01*
X74977Y-2021D01*
X75191Y-3002D01*
X75487Y-3961D01*
X75864Y-4892D01*
X76318Y-5787D01*
X76847Y-6640D01*
X77446Y-7446D01*
X78111Y-8197D01*
X78838Y-8890D01*
X79621Y-9518D01*
X80454Y-10077D01*
X81332Y-10564D01*
X10564Y-81332D02*
X10077Y-80454D01*
X9518Y-79621D01*
X8890Y-78838D01*
X8197Y-78111D01*
X7446Y-77446D01*
X6640Y-76847D01*
X5787Y-76318D01*
X4892Y-75864D01*
X3961Y-75487D01*
X3002Y-75191D01*
X2021Y-74977D01*
X1026Y-74848D01*
X23Y-74803D01*
X-980Y-74844D01*
X-1976Y-74970D01*
X-2957Y-75179D01*
X-3918Y-75472D01*
X-4849Y-75845D01*
X-5746Y-76295D01*
X-6602Y-76821D01*
X-7410Y-77416D01*
X-8164Y-78079D01*
X-8859Y-78803D01*
X-9490Y-79583D01*
X-10053Y-80415D01*
X-10543Y-81291D01*
X-10957Y-82205D01*
X-11292Y-83151D01*
X-11545Y-84123D01*
X-11715Y-85112D01*
X-11800Y-86112D01*
Y-87116D01*
X-11715Y-88116D01*
X-11545Y-89106D01*
X-11292Y-90077D01*
X-10957Y-91023D01*
X-10543Y-91938D01*
X-10053Y-92814D01*
X-9490Y-93645D01*
X-8859Y-94425D01*
X-8164Y-95149D01*
X-7410Y-95812D01*
X-6602Y-96408D01*
X-5746Y-96933D01*
X-4849Y-97384D01*
X-3918Y-97757D01*
X-2957Y-98049D01*
X-1976Y-98259D01*
X-980Y-98384D01*
X23Y-98425D01*
X1026Y-98381D01*
X2021Y-98251D01*
X3002Y-98037D01*
X3961Y-97741D01*
X4892Y-97364D01*
X5787Y-96910D01*
X6640Y-96382D01*
X7446Y-95783D01*
X8197Y-95117D01*
X8890Y-94390D01*
X9518Y-93608D01*
X10077Y-92774D01*
X10564Y-91896D01*
X-33071Y-88976D02*
X-14961D01*
X-33071D02*
Y-79528D01*
X-14961D01*
Y-88976D02*
Y-79528D01*
X15354Y-87402D02*
Y-77953D01*
Y-87402D02*
X33465D01*
Y-77953D01*
X15354D02*
X33465D01*
X-9055Y-54331D02*
X9055D01*
Y-63779D02*
Y-54331D01*
X-9055Y-63779D02*
X9055D01*
X-9055D02*
Y-54331D01*
X77953Y16535D02*
X87402D01*
Y34646D01*
X77953D02*
X87402D01*
X77953Y16535D02*
Y34646D01*
X87402Y-34646D02*
Y-16535D01*
X77953Y-34646D02*
X87402D01*
X77953D02*
Y-16535D01*
X87402D01*
X54331Y9055D02*
X63779D01*
X54331Y-9055D02*
Y9055D01*
Y-9055D02*
X63779D01*
Y9055D01*
X-34646Y77953D02*
X-16535D01*
X-34646D02*
Y87402D01*
X-16535D01*
Y77953D02*
Y87402D01*
X16535Y77953D02*
Y87402D01*
Y77953D02*
X34646D01*
Y87402D01*
X16535D02*
X34646D01*
X-9055Y63779D02*
X9055D01*
Y54331D02*
Y63779D01*
X-9055Y54331D02*
X9055D01*
X-9055D02*
Y63779D01*
X-87402Y-16535D02*
X-77953D01*
X-87402Y-34646D02*
Y-16535D01*
Y-34646D02*
X-77953D01*
Y-16535D01*
X-87402Y16535D02*
Y34646D01*
X-77953D01*
Y16535D02*
Y34646D01*
X-87402Y16535D02*
X-77953D01*
X-63779Y-9055D02*
X-54331D01*
Y9055D01*
X-63779D02*
X-54331D01*
X-63779Y-9055D02*
Y9055D01*
X33071Y4724D02*
Y8268D01*
X35925D01*
X44488Y4724D02*
Y8268D01*
X41634D02*
X44488D01*
X-91732Y10630D02*
X-81496D01*
X10630Y81496D02*
Y91732D01*
X81496Y-10630D02*
X91732D01*
X10630Y-91732D02*
Y-81496D01*
X14567Y-19685D02*
Y-6299D01*
Y-19685D02*
X22441D01*
Y-6299D01*
X14567D02*
X22441D01*
X14567Y-1575D02*
Y11811D01*
Y-1575D02*
X22441D01*
Y11811D01*
X14567D02*
X22441D01*
X31496Y-19291D02*
X44882D01*
Y-11417D01*
X31496D02*
X44882D01*
X31496Y-19291D02*
Y-11417D01*
X29626Y49213D02*
Y59055D01*
X-29626Y49213D02*
X29626D01*
X-29626D02*
Y68898D01*
X29626D01*
Y59055D02*
Y68898D01*
X-38976Y59055D02*
X-29626D01*
X29626D02*
X38976D01*
X59055Y-38976D02*
Y-29626D01*
Y29626D02*
Y38976D01*
Y-29626D02*
X68898D01*
Y29626D01*
X49213D02*
X68898D01*
X49213Y-29626D02*
Y29626D01*
Y-29626D02*
X59055D01*
X29232Y-68898D02*
Y-59055D01*
X-30020Y-68898D02*
X29232D01*
X-30020D02*
Y-49213D01*
X29232D01*
Y-59055D02*
Y-49213D01*
X-39370Y-59055D02*
X-30020D01*
X29232D02*
X38583D01*
X-59055Y-38976D02*
Y-29626D01*
Y29626D02*
Y38976D01*
Y-29626D02*
X-49213D01*
Y29626D01*
X-68898D02*
X-49213D01*
X-68898Y-29626D02*
Y29626D01*
Y-29626D02*
X-59055D01*
X20866Y40157D02*
Y42126D01*
X11024Y30315D02*
Y32283D01*
Y30315D02*
X20866D01*
Y32283D01*
X11024Y42126D02*
X20866D01*
X11024Y40157D02*
Y42126D01*
X-1181Y-2953D02*
Y10433D01*
X-42126Y-2953D02*
X-1181D01*
X-42126D02*
Y10433D01*
X32283Y25984D02*
Y39370D01*
Y25984D02*
X40157D01*
Y39370D01*
X32283D02*
X40157D01*
X-33465Y-40551D02*
X-15354D01*
X-33465Y-28740D02*
X-15354D01*
X49213Y-79725D02*
X52361D01*
X-51181Y-80513D02*
X-48033D01*
X-49607Y-78938D02*
Y-82087D01*
D42*
X41732Y-28740D02*
X41732Y-28740D01*
Y-25197D01*
X41732Y-40551D02*
X41732Y-40551D01*
Y-44094D02*
Y-40551D01*
X-3150Y-28740D02*
Y-25197D01*
Y-44094D02*
Y-40551D01*
Y-25197D02*
X41732D01*
X-3150Y-44094D02*
X41732D01*
D43*
X-44980Y-33170D02*
Y-36319D01*
X-43406D01*
X-42881Y-35794D01*
Y-33695D01*
X-43406Y-33170D01*
X-44980D01*
X-39733D02*
X-41832D01*
Y-34745D01*
X-40782Y-34220D01*
X-40257D01*
X-39733Y-34745D01*
Y-35794D01*
X-40257Y-36319D01*
X-41307D01*
X-41832Y-35794D01*
X-31890Y-77165D02*
Y-74017D01*
X-30316D01*
X-29791Y-74541D01*
Y-75591D01*
X-30316Y-76116D01*
X-31890D01*
X-30840D02*
X-29791Y-77165D01*
X-26642D02*
X-28741D01*
X-26642Y-75066D01*
Y-74541D01*
X-27167Y-74017D01*
X-28216D01*
X-28741Y-74541D01*
X-25593Y-77165D02*
X-24543D01*
X-25068D01*
Y-74017D01*
X-25593Y-74541D01*
X16240Y-76181D02*
Y-73032D01*
X17815D01*
X18339Y-73557D01*
Y-74607D01*
X17815Y-75132D01*
X16240D01*
X17290D02*
X18339Y-76181D01*
X21488D02*
X19389D01*
X21488Y-74082D01*
Y-73557D01*
X20963Y-73032D01*
X19914D01*
X19389Y-73557D01*
X22537D02*
X23062Y-73032D01*
X24112D01*
X24636Y-73557D01*
Y-75656D01*
X24112Y-76181D01*
X23062D01*
X22537Y-75656D01*
Y-73557D01*
X-20276Y-61417D02*
Y-58269D01*
X-18701D01*
X-18177Y-58793D01*
Y-59843D01*
X-18701Y-60368D01*
X-20276D01*
X-19226D02*
X-18177Y-61417D01*
X-17127D02*
X-16078D01*
X-16602D01*
Y-58269D01*
X-17127Y-58793D01*
X-14503Y-60893D02*
X-13978Y-61417D01*
X-12929D01*
X-12404Y-60893D01*
Y-58793D01*
X-12929Y-58269D01*
X-13978D01*
X-14503Y-58793D01*
Y-59318D01*
X-13978Y-59843D01*
X-12404D01*
X75295Y37894D02*
Y41042D01*
X76870D01*
X77394Y40518D01*
Y39468D01*
X76870Y38943D01*
X75295D01*
X76345D02*
X77394Y37894D01*
X78444D02*
X79493D01*
X78969D01*
Y41042D01*
X78444Y40518D01*
X81068D02*
X81593Y41042D01*
X82642D01*
X83167Y40518D01*
Y39993D01*
X82642Y39468D01*
X83167Y38943D01*
Y38418D01*
X82642Y37894D01*
X81593D01*
X81068Y38418D01*
Y38943D01*
X81593Y39468D01*
X81068Y39993D01*
Y40518D01*
X81593Y39468D02*
X82642D01*
X75098Y-41929D02*
Y-38781D01*
X76673D01*
X77197Y-39305D01*
Y-40355D01*
X76673Y-40880D01*
X75098D01*
X76148D02*
X77197Y-41929D01*
X78247D02*
X79297D01*
X78772D01*
Y-38781D01*
X78247Y-39305D01*
X80871Y-38781D02*
X82970D01*
Y-39305D01*
X80871Y-41404D01*
Y-41929D01*
X60039Y-18602D02*
X56891D01*
Y-17028D01*
X57415Y-16503D01*
X58465D01*
X58990Y-17028D01*
Y-18602D01*
Y-17553D02*
X60039Y-16503D01*
Y-15454D02*
Y-14404D01*
Y-14929D01*
X56891D01*
X57415Y-15454D01*
X56891Y-10731D02*
X57415Y-11780D01*
X58465Y-12830D01*
X59515D01*
X60039Y-12305D01*
Y-11256D01*
X59515Y-10731D01*
X58990D01*
X58465Y-11256D01*
Y-12830D01*
X-48031Y76870D02*
Y80019D01*
X-46457D01*
X-45932Y79494D01*
Y78444D01*
X-46457Y77920D01*
X-48031D01*
X-46982D02*
X-45932Y76870D01*
X-44883D02*
X-43833D01*
X-44358D01*
Y80019D01*
X-44883Y79494D01*
X-40160Y80019D02*
X-42259D01*
Y78444D01*
X-41210Y78969D01*
X-40685D01*
X-40160Y78444D01*
Y77395D01*
X-40685Y76870D01*
X-41734D01*
X-42259Y77395D01*
X37402Y77165D02*
Y80314D01*
X38976D01*
X39501Y79789D01*
Y78740D01*
X38976Y78215D01*
X37402D01*
X38451D02*
X39501Y77165D01*
X40550D02*
X41600D01*
X41075D01*
Y80314D01*
X40550Y79789D01*
X44748Y77165D02*
Y80314D01*
X43174Y78740D01*
X45273D01*
X-19390Y57382D02*
Y60531D01*
X-17816D01*
X-17291Y60006D01*
Y58956D01*
X-17816Y58431D01*
X-19390D01*
X-18340D02*
X-17291Y57382D01*
X-16241D02*
X-15192D01*
X-15716D01*
Y60531D01*
X-16241Y60006D01*
X-13617D02*
X-13093Y60531D01*
X-12043D01*
X-11518Y60006D01*
Y59481D01*
X-12043Y58956D01*
X-12568D01*
X-12043D01*
X-11518Y58431D01*
Y57907D01*
X-12043Y57382D01*
X-13093D01*
X-13617Y57907D01*
X-85236Y-40354D02*
Y-37206D01*
X-83662D01*
X-83137Y-37731D01*
Y-38780D01*
X-83662Y-39305D01*
X-85236D01*
X-84187D02*
X-83137Y-40354D01*
X-82088D02*
X-81038D01*
X-81563D01*
Y-37206D01*
X-82088Y-37731D01*
X-77365Y-40354D02*
X-79464D01*
X-77365Y-38255D01*
Y-37731D01*
X-77890Y-37206D01*
X-78939D01*
X-79464Y-37731D01*
X-86614Y37008D02*
Y40156D01*
X-85040D01*
X-84515Y39632D01*
Y38582D01*
X-85040Y38057D01*
X-86614D01*
X-85565D02*
X-84515Y37008D01*
X-83466D02*
X-82416D01*
X-82941D01*
Y40156D01*
X-83466Y39632D01*
X-80842Y37008D02*
X-79792D01*
X-80317D01*
Y40156D01*
X-80842Y39632D01*
X-57382Y-19980D02*
X-60531D01*
Y-18406D01*
X-60006Y-17881D01*
X-58956D01*
X-58431Y-18406D01*
Y-19980D01*
Y-18931D02*
X-57382Y-17881D01*
Y-16832D02*
Y-15782D01*
Y-16307D01*
X-60531D01*
X-60006Y-16832D01*
Y-14208D02*
X-60531Y-13683D01*
Y-12634D01*
X-60006Y-12109D01*
X-57907D01*
X-57382Y-12634D01*
Y-13683D01*
X-57907Y-14208D01*
X-60006D01*
X32087Y17912D02*
Y14764D01*
X33661D01*
X34186Y15289D01*
Y15813D01*
X33661Y16338D01*
X32087D01*
X33661D01*
X34186Y16863D01*
Y17388D01*
X33661Y17912D01*
X32087D01*
X35235D02*
X37334D01*
X36285D01*
Y14764D01*
X38384D02*
X39433D01*
X38909D01*
Y17912D01*
X38384Y17388D01*
X-95276Y16141D02*
Y12992D01*
X-93701D01*
X-93177Y13517D01*
Y15616D01*
X-93701Y16141D01*
X-95276D01*
X-92127Y12992D02*
X-91078D01*
X-91602D01*
Y16141D01*
X-92127Y15616D01*
X-19094Y93700D02*
Y90551D01*
X-17520D01*
X-16995Y91076D01*
Y93175D01*
X-17520Y93700D01*
X-19094D01*
X-13847Y90551D02*
X-15946D01*
X-13847Y92650D01*
Y93175D01*
X-14372Y93700D01*
X-15421D01*
X-15946Y93175D01*
X72539Y13286D02*
Y10138D01*
X74114D01*
X74638Y10663D01*
Y12762D01*
X74114Y13286D01*
X72539D01*
X75688Y12762D02*
X76213Y13286D01*
X77262D01*
X77787Y12762D01*
Y12237D01*
X77262Y11712D01*
X76737D01*
X77262D01*
X77787Y11187D01*
Y10663D01*
X77262Y10138D01*
X76213D01*
X75688Y10663D01*
X12598Y-91340D02*
Y-94488D01*
X14173D01*
X14697Y-93963D01*
Y-91864D01*
X14173Y-91340D01*
X12598D01*
X17321Y-94488D02*
Y-91340D01*
X15747Y-92914D01*
X17846D01*
X-2232Y-23097D02*
Y-20998D01*
X-2756Y-20473D01*
X-3806D01*
X-4331Y-20998D01*
Y-23097D01*
X-3806Y-23622D01*
X-2756D01*
X-3281Y-22572D02*
X-2232Y-23622D01*
X-2756D02*
X-2232Y-23097D01*
X917Y-23622D02*
X-1182D01*
X917Y-21523D01*
Y-20998D01*
X392Y-20473D01*
X-657D01*
X-1182Y-20998D01*
X7382Y-12795D02*
Y-9647D01*
X8956D01*
X9481Y-10171D01*
Y-11221D01*
X8956Y-11746D01*
X7382D01*
X8431D02*
X9481Y-12795D01*
X10531D02*
X11580D01*
X11055D01*
Y-9647D01*
X10531Y-10171D01*
X6890Y6693D02*
Y9842D01*
X8464D01*
X8989Y9317D01*
Y8267D01*
X8464Y7742D01*
X6890D01*
X7939D02*
X8989Y6693D01*
X10038Y9317D02*
X10563Y9842D01*
X11613D01*
X12137Y9317D01*
Y8792D01*
X11613Y8267D01*
X11088D01*
X11613D01*
X12137Y7742D01*
Y7218D01*
X11613Y6693D01*
X10563D01*
X10038Y7218D01*
X32283Y-9449D02*
Y-6300D01*
X33858D01*
X34383Y-6825D01*
Y-7875D01*
X33858Y-8399D01*
X32283D01*
X33333D02*
X34383Y-9449D01*
X37006D02*
Y-6300D01*
X35432Y-7875D01*
X37531D01*
X-39469Y64468D02*
Y67617D01*
X-37894D01*
X-37369Y67092D01*
Y66043D01*
X-37894Y65518D01*
X-39469D01*
X-38419D02*
X-37369Y64468D01*
X-34221Y67617D02*
X-36320D01*
Y66043D01*
X-35270Y66568D01*
X-34746D01*
X-34221Y66043D01*
Y64993D01*
X-34746Y64468D01*
X-35795D01*
X-36320Y64993D01*
X46457Y31890D02*
Y35038D01*
X48031D01*
X48556Y34514D01*
Y33464D01*
X48031Y32939D01*
X46457D01*
X47506D02*
X48556Y31890D01*
X51704Y35038D02*
X50655Y34514D01*
X49605Y33464D01*
Y32414D01*
X50130Y31890D01*
X51180D01*
X51704Y32414D01*
Y32939D01*
X51180Y33464D01*
X49605D01*
X-38091Y-53150D02*
Y-50001D01*
X-36516D01*
X-35991Y-50526D01*
Y-51575D01*
X-36516Y-52100D01*
X-38091D01*
X-37041D02*
X-35991Y-53150D01*
X-34942Y-50001D02*
X-32843D01*
Y-50526D01*
X-34942Y-52625D01*
Y-53150D01*
X-68898Y32382D02*
Y35530D01*
X-67323D01*
X-66799Y35006D01*
Y33956D01*
X-67323Y33431D01*
X-68898D01*
X-67848D02*
X-66799Y32382D01*
X-65749Y35006D02*
X-65224Y35530D01*
X-64175D01*
X-63650Y35006D01*
Y34481D01*
X-64175Y33956D01*
X-63650Y33431D01*
Y32907D01*
X-64175Y32382D01*
X-65224D01*
X-65749Y32907D01*
Y33431D01*
X-65224Y33956D01*
X-65749Y34481D01*
Y35006D01*
X-65224Y33956D02*
X-64175D01*
X12697Y23130D02*
Y26278D01*
X14271D01*
X14796Y25754D01*
Y24704D01*
X14271Y24179D01*
X12697D01*
X13746D02*
X14796Y23130D01*
X15845Y26278D02*
X17944D01*
X16895D01*
Y23130D01*
X18994D02*
X20044D01*
X19519D01*
Y26278D01*
X18994Y25754D01*
X-39795Y46278D02*
Y48377D01*
X-40320Y48902D01*
X-41370D01*
X-41895Y48377D01*
Y46278D01*
X-41370Y45753D01*
X-40320D01*
X-40845Y46803D02*
X-39795Y45753D01*
X-40320D02*
X-39795Y46278D01*
X-38746Y45753D02*
X-37696D01*
X-38221D01*
Y48902D01*
X-38746Y48377D01*
X32677Y41732D02*
Y44881D01*
X34251D01*
X34776Y44356D01*
Y43307D01*
X34251Y42782D01*
X32677D01*
X33727D02*
X34776Y41732D01*
X35826Y42257D02*
X36351Y41732D01*
X37400D01*
X37925Y42257D01*
Y44356D01*
X37400Y44881D01*
X36351D01*
X35826Y44356D01*
Y43831D01*
X36351Y43307D01*
X37925D01*
M02*
