G04 Layer_Color=8421504*
%FSLAX44Y44*%
%MOMM*%
G71*
G01*
G75*
%ADD10R,2.0000X2.0000*%
%ADD11R,1.2700X0.7000*%
%ADD12R,1.1000X4.4500*%
%ADD13R,9.6500X7.8000*%
%ADD14R,0.7000X1.2700*%
%ADD15R,5.5000X2.0000*%
%ADD16R,0.6500X1.2000*%
%ADD17R,1.7000X0.9000*%
%ADD18R,0.9000X1.7000*%
D10*
X-82000Y-88000D02*
D03*
X-42000D02*
D03*
D11*
X92000Y73000D02*
D03*
Y93000D02*
D03*
X47000Y3000D02*
D03*
Y23000D02*
D03*
Y-43000D02*
D03*
Y-23000D02*
D03*
D12*
X-80400Y-40000D02*
D03*
X-29600D02*
D03*
D13*
X-55000Y69500D02*
D03*
D14*
X107000Y-39000D02*
D03*
X87000D02*
D03*
D15*
X96500Y-88000D02*
D03*
X1500D02*
D03*
D16*
X98500Y27000D02*
D03*
X108000Y2000D02*
D03*
X89000D02*
D03*
D17*
X-150000Y14500D02*
D03*
Y-14500D02*
D03*
X-210000Y50500D02*
D03*
Y79500D02*
D03*
Y-79500D02*
D03*
Y-50500D02*
D03*
X150000Y-14500D02*
D03*
Y14500D02*
D03*
X210000Y-50500D02*
D03*
Y-79500D02*
D03*
Y79500D02*
D03*
Y50500D02*
D03*
D18*
X-14500Y150000D02*
D03*
X14500D02*
D03*
X79500Y210000D02*
D03*
X50500D02*
D03*
X-50500D02*
D03*
X-79500D02*
D03*
X-14500Y-150000D02*
D03*
X14500D02*
D03*
X76500Y-210000D02*
D03*
X47500D02*
D03*
X-46500Y-214000D02*
D03*
X-75500D02*
D03*
M02*
