G04 Layer_Color=16711935*
%FSLAX25Y25*%
%MOIN*%
G70*
G01*
G75*
%ADD48R,0.05800X0.03556*%
%ADD49R,0.03556X0.05800*%
%ADD53C,0.16548*%
%ADD54C,0.07887*%
%ADD55R,0.08674X0.04737*%
%ADD56O,0.08674X0.04737*%
%ADD57R,0.04737X0.08674*%
%ADD58O,0.04737X0.08674*%
%ADD59C,0.07099*%
%ADD60C,0.06312*%
%ADD61C,0.06706*%
%ADD62R,0.06706X0.06706*%
%ADD63R,0.07493X0.07887*%
%ADD64R,0.07099X0.09383*%
%ADD65O,0.07493X0.03162*%
%ADD66O,0.03162X0.07493*%
%ADD67R,0.05131X0.05918*%
%ADD68C,0.08674*%
D48*
X53150Y-35433D02*
D03*
Y-27559D02*
D03*
D49*
X4724Y46063D02*
D03*
X-3150D02*
D03*
X37795Y-34646D02*
D03*
X29921D02*
D03*
X18110Y22047D02*
D03*
X25984D02*
D03*
X787Y-34646D02*
D03*
X8661D02*
D03*
X33071Y22047D02*
D03*
X40945D02*
D03*
X-28740Y-19291D02*
D03*
X-36614D02*
D03*
X3150Y22047D02*
D03*
X11024D02*
D03*
D53*
X61024Y61024D02*
D03*
X-61024D02*
D03*
Y-61024D02*
D03*
X61024D02*
D03*
D54*
X43307Y-78740D02*
D03*
X-43307D02*
D03*
D55*
X-86614Y-7677D02*
D03*
X86614Y7677D02*
D03*
D56*
X-86614Y-2559D02*
D03*
Y2559D02*
D03*
Y7677D02*
D03*
X86614Y2559D02*
D03*
Y-2559D02*
D03*
Y-7677D02*
D03*
D57*
X-7677Y86614D02*
D03*
Y-86614D02*
D03*
D58*
X-2559Y86614D02*
D03*
X2559D02*
D03*
X7677D02*
D03*
X-2559Y-86614D02*
D03*
X2559D02*
D03*
X7677D02*
D03*
D59*
X45276Y59055D02*
D03*
X-45276D02*
D03*
X59055Y45276D02*
D03*
Y-45276D02*
D03*
X44882Y-59055D02*
D03*
X-45669D02*
D03*
X-59055Y45276D02*
D03*
Y-45276D02*
D03*
D60*
X20866Y36220D02*
D03*
X11024D02*
D03*
D61*
X-48819Y20000D02*
D03*
Y10000D02*
D03*
Y0D02*
D03*
Y-10000D02*
D03*
D62*
Y-20000D02*
D03*
D63*
X6004Y-59055D02*
D03*
X-6004D02*
D03*
D64*
X69291Y-18110D02*
D03*
Y18110D02*
D03*
D65*
X45866Y-15551D02*
D03*
Y-12402D02*
D03*
Y-9252D02*
D03*
Y-6102D02*
D03*
Y-2953D02*
D03*
Y197D02*
D03*
Y3347D02*
D03*
Y6496D02*
D03*
X11614D02*
D03*
Y3347D02*
D03*
Y197D02*
D03*
Y-2953D02*
D03*
Y-6102D02*
D03*
Y-9252D02*
D03*
Y-12402D02*
D03*
Y-15551D02*
D03*
D66*
X39764Y12598D02*
D03*
X36614D02*
D03*
X33465D02*
D03*
X30315D02*
D03*
X27165D02*
D03*
X24016D02*
D03*
X20866D02*
D03*
X17717D02*
D03*
Y-21654D02*
D03*
X20866D02*
D03*
X24016D02*
D03*
X27165D02*
D03*
X30315D02*
D03*
X33465D02*
D03*
X36614D02*
D03*
X39764D02*
D03*
D67*
X-28150Y-7087D02*
D03*
X-37205D02*
D03*
D68*
X52756Y29528D02*
D03*
X-15355Y-12205D02*
D03*
Y-2756D02*
D03*
Y6693D02*
D03*
Y25591D02*
D03*
Y16142D02*
D03*
M02*
