G04 Layer_Color=8388736*
%FSLAX25Y25*%
%MOIN*%
G70*
G01*
G75*
%ADD44R,0.04343X0.07493*%
%ADD45R,0.07493X0.04343*%
%ADD46R,0.03359X0.05524*%
%ADD47R,0.22453X0.08674*%
%ADD48R,0.05800X0.03556*%
%ADD49R,0.03556X0.05800*%
%ADD50R,0.38792X0.31509*%
%ADD51R,0.05131X0.18320*%
%ADD52R,0.08674X0.08674*%
%ADD53C,0.16548*%
%ADD54C,0.07887*%
%ADD55R,0.08674X0.04737*%
%ADD56O,0.08674X0.04737*%
%ADD57R,0.04737X0.08674*%
%ADD58O,0.04737X0.08674*%
%ADD59C,0.07099*%
%ADD60C,0.06312*%
%ADD61C,0.06706*%
%ADD62R,0.06706X0.06706*%
D44*
X-29724Y-84252D02*
D03*
X-18307D02*
D03*
X18701Y-82677D02*
D03*
X30118D02*
D03*
X5709Y-59055D02*
D03*
X-5709D02*
D03*
X-31299Y82677D02*
D03*
X-19882D02*
D03*
X19882D02*
D03*
X31299D02*
D03*
X5709Y59055D02*
D03*
X-5709D02*
D03*
D45*
X82677Y19882D02*
D03*
Y31299D02*
D03*
Y-31299D02*
D03*
Y-19882D02*
D03*
X59055Y5709D02*
D03*
Y-5709D02*
D03*
X-82677Y-19882D02*
D03*
Y-31299D02*
D03*
Y31299D02*
D03*
Y19882D02*
D03*
X-59055Y-5709D02*
D03*
Y5709D02*
D03*
D46*
X35039Y787D02*
D03*
X42520D02*
D03*
X38780Y10630D02*
D03*
D47*
X591Y-34646D02*
D03*
X37992D02*
D03*
D48*
X18504Y-9055D02*
D03*
Y-16929D02*
D03*
Y9055D02*
D03*
Y1181D02*
D03*
X36220Y36614D02*
D03*
Y28740D02*
D03*
D49*
X34252Y-15354D02*
D03*
X42126D02*
D03*
D50*
X-21654Y27362D02*
D03*
D51*
X-11654Y-15748D02*
D03*
X-31653D02*
D03*
D52*
X-16535Y-34646D02*
D03*
X-32283D02*
D03*
D53*
X61024Y61024D02*
D03*
X-61024D02*
D03*
Y-61024D02*
D03*
X61024D02*
D03*
D54*
X43307Y-78740D02*
D03*
X-43307D02*
D03*
D55*
X-86614Y-7677D02*
D03*
X86614Y7677D02*
D03*
D56*
X-86614Y-2559D02*
D03*
Y2559D02*
D03*
Y7677D02*
D03*
X86614Y2559D02*
D03*
Y-2559D02*
D03*
Y-7677D02*
D03*
D57*
X-7677Y86614D02*
D03*
Y-86614D02*
D03*
D58*
X-2559Y86614D02*
D03*
X2559D02*
D03*
X7677D02*
D03*
X-2559Y-86614D02*
D03*
X2559D02*
D03*
X7677D02*
D03*
D59*
X45276Y59055D02*
D03*
X-45276D02*
D03*
X59055Y45276D02*
D03*
Y-45276D02*
D03*
X44882Y-59055D02*
D03*
X-45669D02*
D03*
X-59055Y45276D02*
D03*
Y-45276D02*
D03*
D60*
X20866Y36220D02*
D03*
X11024D02*
D03*
D61*
X-48819Y20000D02*
D03*
Y10000D02*
D03*
Y0D02*
D03*
Y-10000D02*
D03*
D62*
Y-20000D02*
D03*
M02*
