M48
;Layer_Color=9474304
;FILE_FORMAT=2:5
INCH,TZ
;TYPE=PLATED
T1F00S00C0.01181
T2F00S00C0.02756
T3F00S00C0.03937
T4F00S00C0.04724
T5F00S00C0.13780
%
T01
X30118Y-75787
X75394Y-31299
X44094Y-24409
X50787Y-12598
Y-9449
X39469Y787
X49311Y15256
X29134Y28740
X27559Y33071
Y40945
X30315
X33071
X35827
X30315Y54331
X27559
X24803
X22047
X31102Y74803
X18701Y-2953
X14961Y-34646
X23622
X-5118Y-42126
X-42795Y-23228
X-30315Y2756
X-26772Y7480
X-75394Y31299
X-74016Y-31496
T02
X-7677Y-86614
X-2559
X2559
X7677
X86614Y-7677
Y-2559
Y2559
Y7677
X-86614Y7677
Y2559
Y-2559
Y-7677
X-7677Y86614
X-2559
X2559
X7677
T03
X-45669Y-59055
X-59055Y-45276
X-48819Y-20000
Y-10000
Y0
Y10000
Y20000
X-59055Y45276
X-45276Y59055
X11024Y36220
X20866
X45276Y59055
X59055Y45276
Y-45276
X44882Y-59055
T04
X-43307Y-78740
X43307
T05
X-61024Y-61024
Y61024
X61024
Y-61024
M30
