M48
;Layer_Color=9474304
;FILE_FORMAT=4:4
METRIC,LZ
;TYPE=PLATED
T1F00S00C0.3000
T2F00S00C0.7000
T3F00S00C1.0000
T4F00S00C1.2000
T5F00S00C3.5000
%
T01
X000765Y-001925
X001915Y-000795
X00112Y-00062
X00129Y-00032
Y-00024
X0010025Y00002
X0012525Y0003875
X00074Y00073
X0007Y00084
Y00104
X00077
X00084
X00091
X00077Y00138
X0007
X00063
X00056
X00079Y0019
X000475Y-000075
X00038Y-00088
X0006
X-00013Y-00107
X-001087Y-00059
X-00077Y00007
X-00068Y00019
X-001915Y000795
X-00188Y-0008
T02
X-000195Y-0022
X-000065
X000065
X000195
X0022Y-000195
Y-000065
Y000065
Y000195
X-0022Y000195
Y000065
Y-000065
Y-000195
X-000195Y0022
X-000065
X000065
X000195
T03
X-00116Y-0015
X-0015Y-00115
X-00124Y-000508
Y-000254
Y0
Y000254
Y000508
X-0015Y00115
X-00115Y0015
X00028Y00092
X00053
X0015Y00115
X00115Y0015
X0015Y-00115
X00114Y-0015
T04
X-0011Y-002
X0011
T05
X-00155Y-00155
X00155
Y00155
X-00155
M30
